<mxfile host="app.diagrams.net" modified="2023-05-18T23:47:48.474Z" agent="Mozilla/5.0 (Windows NT 10.0; Win64; x64) AppleWebKit/537.36 (KHTML, like Gecko) Chrome/113.0.0.0 Safari/537.36" etag="yZQekDAMkcCPKtrOklGR" version="21.3.2" type="github">
  <diagram name="페이지-1" id="Qc981BUR8eLFgj-rGyEp">
    <mxGraphModel dx="1738" dy="2103" grid="1" gridSize="10" guides="0" tooltips="1" connect="0" arrows="0" fold="1" page="1" pageScale="1" pageWidth="1390" pageHeight="980" math="0" shadow="0">
      <root>
        <mxCell id="0" />
        <mxCell id="1" parent="0" />
        <mxCell id="1eCSTTwg-2aaGd2EnfkB-7" value="communitys_review" style="shape=table;startSize=30;container=1;collapsible=0;childLayout=tableLayout;fixedRows=1;rowLines=0;fontStyle=0;strokeColor=default;fontSize=16;rounded=1;align=center;fillColor=#CCFFCC;" parent="1" vertex="1">
          <mxGeometry x="848.57" y="260" width="269" height="234" as="geometry" />
        </mxCell>
        <mxCell id="1eCSTTwg-2aaGd2EnfkB-8" value="" style="shape=tableRow;horizontal=0;startSize=0;swimlaneHead=0;swimlaneBody=0;top=0;left=0;bottom=0;right=0;collapsible=0;dropTarget=0;fillColor=none;points=[[0,0.5],[1,0.5]];portConstraint=eastwest;strokeColor=inherit;fontSize=16;align=center;" parent="1eCSTTwg-2aaGd2EnfkB-7" vertex="1">
          <mxGeometry y="30" width="269" height="24" as="geometry" />
        </mxCell>
        <mxCell id="1eCSTTwg-2aaGd2EnfkB-9" value="id" style="shape=partialRectangle;html=1;whiteSpace=wrap;connectable=0;fillColor=none;top=0;left=0;bottom=0;right=0;overflow=hidden;pointerEvents=1;strokeColor=inherit;fontSize=16;align=center;" parent="1eCSTTwg-2aaGd2EnfkB-8" vertex="1">
          <mxGeometry width="129" height="24" as="geometry">
            <mxRectangle width="129" height="24" as="alternateBounds" />
          </mxGeometry>
        </mxCell>
        <mxCell id="1eCSTTwg-2aaGd2EnfkB-10" value="integer" style="shape=partialRectangle;html=1;whiteSpace=wrap;connectable=0;fillColor=none;top=0;left=0;bottom=0;right=0;align=center;spacingLeft=6;overflow=hidden;strokeColor=inherit;fontSize=16;" parent="1eCSTTwg-2aaGd2EnfkB-8" vertex="1">
          <mxGeometry x="129" width="140" height="24" as="geometry">
            <mxRectangle width="140" height="24" as="alternateBounds" />
          </mxGeometry>
        </mxCell>
        <mxCell id="1eCSTTwg-2aaGd2EnfkB-11" value="" style="shape=tableRow;horizontal=0;startSize=0;swimlaneHead=0;swimlaneBody=0;top=0;left=0;bottom=0;right=0;collapsible=0;dropTarget=0;fillColor=none;points=[[0,0.5],[1,0.5]];portConstraint=eastwest;strokeColor=inherit;fontSize=16;align=center;" parent="1eCSTTwg-2aaGd2EnfkB-7" vertex="1">
          <mxGeometry y="54" width="269" height="30" as="geometry" />
        </mxCell>
        <mxCell id="1eCSTTwg-2aaGd2EnfkB-12" value="user_id" style="shape=partialRectangle;html=1;whiteSpace=wrap;connectable=0;fillColor=none;top=0;left=0;bottom=0;right=0;overflow=hidden;strokeColor=inherit;fontSize=16;align=center;" parent="1eCSTTwg-2aaGd2EnfkB-11" vertex="1">
          <mxGeometry width="129" height="30" as="geometry">
            <mxRectangle width="129" height="30" as="alternateBounds" />
          </mxGeometry>
        </mxCell>
        <mxCell id="1eCSTTwg-2aaGd2EnfkB-13" value="integer" style="shape=partialRectangle;html=1;whiteSpace=wrap;connectable=0;fillColor=none;top=0;left=0;bottom=0;right=0;align=center;spacingLeft=6;overflow=hidden;strokeColor=inherit;fontSize=16;" parent="1eCSTTwg-2aaGd2EnfkB-11" vertex="1">
          <mxGeometry x="129" width="140" height="30" as="geometry">
            <mxRectangle width="140" height="30" as="alternateBounds" />
          </mxGeometry>
        </mxCell>
        <mxCell id="1eCSTTwg-2aaGd2EnfkB-17" value="" style="shape=tableRow;horizontal=0;startSize=0;swimlaneHead=0;swimlaneBody=0;top=0;left=0;bottom=0;right=0;collapsible=0;dropTarget=0;fillColor=none;points=[[0,0.5],[1,0.5]];portConstraint=eastwest;strokeColor=inherit;fontSize=16;align=center;" parent="1eCSTTwg-2aaGd2EnfkB-7" vertex="1">
          <mxGeometry y="84" width="269" height="30" as="geometry" />
        </mxCell>
        <mxCell id="1eCSTTwg-2aaGd2EnfkB-18" value="movie_id" style="shape=partialRectangle;html=1;whiteSpace=wrap;connectable=0;fillColor=none;top=0;left=0;bottom=0;right=0;overflow=hidden;strokeColor=inherit;fontSize=16;align=center;" parent="1eCSTTwg-2aaGd2EnfkB-17" vertex="1">
          <mxGeometry width="129" height="30" as="geometry">
            <mxRectangle width="129" height="30" as="alternateBounds" />
          </mxGeometry>
        </mxCell>
        <mxCell id="1eCSTTwg-2aaGd2EnfkB-19" value="integer" style="shape=partialRectangle;html=1;whiteSpace=wrap;connectable=0;fillColor=none;top=0;left=0;bottom=0;right=0;align=center;spacingLeft=6;overflow=hidden;strokeColor=inherit;fontSize=16;" parent="1eCSTTwg-2aaGd2EnfkB-17" vertex="1">
          <mxGeometry x="129" width="140" height="30" as="geometry">
            <mxRectangle width="140" height="30" as="alternateBounds" />
          </mxGeometry>
        </mxCell>
        <mxCell id="1eCSTTwg-2aaGd2EnfkB-20" value="" style="shape=tableRow;horizontal=0;startSize=0;swimlaneHead=0;swimlaneBody=0;top=0;left=0;bottom=0;right=0;collapsible=0;dropTarget=0;fillColor=none;points=[[0,0.5],[1,0.5]];portConstraint=eastwest;strokeColor=inherit;fontSize=16;align=center;" parent="1eCSTTwg-2aaGd2EnfkB-7" vertex="1">
          <mxGeometry y="114" width="269" height="30" as="geometry" />
        </mxCell>
        <mxCell id="1eCSTTwg-2aaGd2EnfkB-21" value="title" style="shape=partialRectangle;html=1;whiteSpace=wrap;connectable=0;fillColor=none;top=0;left=0;bottom=0;right=0;overflow=hidden;strokeColor=inherit;fontSize=16;align=center;" parent="1eCSTTwg-2aaGd2EnfkB-20" vertex="1">
          <mxGeometry width="129" height="30" as="geometry">
            <mxRectangle width="129" height="30" as="alternateBounds" />
          </mxGeometry>
        </mxCell>
        <mxCell id="1eCSTTwg-2aaGd2EnfkB-22" value="varchar" style="shape=partialRectangle;html=1;whiteSpace=wrap;connectable=0;fillColor=none;top=0;left=0;bottom=0;right=0;align=center;spacingLeft=6;overflow=hidden;strokeColor=inherit;fontSize=16;" parent="1eCSTTwg-2aaGd2EnfkB-20" vertex="1">
          <mxGeometry x="129" width="140" height="30" as="geometry">
            <mxRectangle width="140" height="30" as="alternateBounds" />
          </mxGeometry>
        </mxCell>
        <mxCell id="1eCSTTwg-2aaGd2EnfkB-14" value="" style="shape=tableRow;horizontal=0;startSize=0;swimlaneHead=0;swimlaneBody=0;top=0;left=0;bottom=0;right=0;collapsible=0;dropTarget=0;fillColor=none;points=[[0,0.5],[1,0.5]];portConstraint=eastwest;strokeColor=inherit;fontSize=16;align=center;" parent="1eCSTTwg-2aaGd2EnfkB-7" vertex="1">
          <mxGeometry y="144" width="269" height="30" as="geometry" />
        </mxCell>
        <mxCell id="1eCSTTwg-2aaGd2EnfkB-15" value="content" style="shape=partialRectangle;html=1;whiteSpace=wrap;connectable=0;fillColor=none;top=0;left=0;bottom=0;right=0;overflow=hidden;strokeColor=inherit;fontSize=16;align=center;" parent="1eCSTTwg-2aaGd2EnfkB-14" vertex="1">
          <mxGeometry width="129" height="30" as="geometry">
            <mxRectangle width="129" height="30" as="alternateBounds" />
          </mxGeometry>
        </mxCell>
        <mxCell id="1eCSTTwg-2aaGd2EnfkB-16" value="varchar" style="shape=partialRectangle;html=1;whiteSpace=wrap;connectable=0;fillColor=none;top=0;left=0;bottom=0;right=0;align=center;spacingLeft=6;overflow=hidden;strokeColor=inherit;fontSize=16;" parent="1eCSTTwg-2aaGd2EnfkB-14" vertex="1">
          <mxGeometry x="129" width="140" height="30" as="geometry">
            <mxRectangle width="140" height="30" as="alternateBounds" />
          </mxGeometry>
        </mxCell>
        <mxCell id="1eCSTTwg-2aaGd2EnfkB-23" value="" style="shape=tableRow;horizontal=0;startSize=0;swimlaneHead=0;swimlaneBody=0;top=0;left=0;bottom=0;right=0;collapsible=0;dropTarget=0;fillColor=none;points=[[0,0.5],[1,0.5]];portConstraint=eastwest;strokeColor=inherit;fontSize=16;align=center;" parent="1eCSTTwg-2aaGd2EnfkB-7" vertex="1">
          <mxGeometry y="174" width="269" height="30" as="geometry" />
        </mxCell>
        <mxCell id="1eCSTTwg-2aaGd2EnfkB-24" value="created_at" style="shape=partialRectangle;html=1;whiteSpace=wrap;connectable=0;fillColor=none;top=0;left=0;bottom=0;right=0;overflow=hidden;strokeColor=inherit;fontSize=16;align=center;" parent="1eCSTTwg-2aaGd2EnfkB-23" vertex="1">
          <mxGeometry width="129" height="30" as="geometry">
            <mxRectangle width="129" height="30" as="alternateBounds" />
          </mxGeometry>
        </mxCell>
        <mxCell id="1eCSTTwg-2aaGd2EnfkB-25" value="datetime" style="shape=partialRectangle;html=1;whiteSpace=wrap;connectable=0;fillColor=none;top=0;left=0;bottom=0;right=0;align=center;spacingLeft=6;overflow=hidden;strokeColor=inherit;fontSize=16;" parent="1eCSTTwg-2aaGd2EnfkB-23" vertex="1">
          <mxGeometry x="129" width="140" height="30" as="geometry">
            <mxRectangle width="140" height="30" as="alternateBounds" />
          </mxGeometry>
        </mxCell>
        <mxCell id="1eCSTTwg-2aaGd2EnfkB-26" value="" style="shape=tableRow;horizontal=0;startSize=0;swimlaneHead=0;swimlaneBody=0;top=0;left=0;bottom=0;right=0;collapsible=0;dropTarget=0;fillColor=none;points=[[0,0.5],[1,0.5]];portConstraint=eastwest;strokeColor=inherit;fontSize=16;align=center;" parent="1eCSTTwg-2aaGd2EnfkB-7" vertex="1">
          <mxGeometry y="204" width="269" height="30" as="geometry" />
        </mxCell>
        <mxCell id="1eCSTTwg-2aaGd2EnfkB-27" value="updated_at" style="shape=partialRectangle;html=1;whiteSpace=wrap;connectable=0;fillColor=none;top=0;left=0;bottom=0;right=0;overflow=hidden;strokeColor=inherit;fontSize=16;align=center;" parent="1eCSTTwg-2aaGd2EnfkB-26" vertex="1">
          <mxGeometry width="129" height="30" as="geometry">
            <mxRectangle width="129" height="30" as="alternateBounds" />
          </mxGeometry>
        </mxCell>
        <mxCell id="1eCSTTwg-2aaGd2EnfkB-28" value="datetime" style="shape=partialRectangle;html=1;whiteSpace=wrap;connectable=0;fillColor=none;top=0;left=0;bottom=0;right=0;align=center;spacingLeft=6;overflow=hidden;strokeColor=inherit;fontSize=16;" parent="1eCSTTwg-2aaGd2EnfkB-26" vertex="1">
          <mxGeometry x="129" width="140" height="30" as="geometry">
            <mxRectangle width="140" height="30" as="alternateBounds" />
          </mxGeometry>
        </mxCell>
        <mxCell id="1eCSTTwg-2aaGd2EnfkB-39" value="communitys_review_reviewcomment" style="shape=table;startSize=30;container=1;collapsible=0;childLayout=tableLayout;fixedRows=1;rowLines=0;fontStyle=0;strokeColor=default;fontSize=16;rounded=1;align=center;fillColor=#CCFFCC;" parent="1" vertex="1">
          <mxGeometry x="847.57" width="269" height="200" as="geometry" />
        </mxCell>
        <mxCell id="1eCSTTwg-2aaGd2EnfkB-40" value="" style="shape=tableRow;horizontal=0;startSize=0;swimlaneHead=0;swimlaneBody=0;top=0;left=0;bottom=0;right=0;collapsible=0;dropTarget=0;fillColor=none;points=[[0,0.5],[1,0.5]];portConstraint=eastwest;strokeColor=inherit;fontSize=16;align=center;" parent="1eCSTTwg-2aaGd2EnfkB-39" vertex="1">
          <mxGeometry y="30" width="269" height="20" as="geometry" />
        </mxCell>
        <mxCell id="1eCSTTwg-2aaGd2EnfkB-41" value="id" style="shape=partialRectangle;html=1;whiteSpace=wrap;connectable=0;fillColor=none;top=0;left=0;bottom=0;right=0;overflow=hidden;pointerEvents=1;strokeColor=inherit;fontSize=16;align=center;" parent="1eCSTTwg-2aaGd2EnfkB-40" vertex="1">
          <mxGeometry width="134" height="20" as="geometry">
            <mxRectangle width="134" height="20" as="alternateBounds" />
          </mxGeometry>
        </mxCell>
        <mxCell id="1eCSTTwg-2aaGd2EnfkB-42" value="integer" style="shape=partialRectangle;html=1;whiteSpace=wrap;connectable=0;fillColor=none;top=0;left=0;bottom=0;right=0;align=center;spacingLeft=6;overflow=hidden;strokeColor=inherit;fontSize=16;" parent="1eCSTTwg-2aaGd2EnfkB-40" vertex="1">
          <mxGeometry x="134" width="135" height="20" as="geometry">
            <mxRectangle width="135" height="20" as="alternateBounds" />
          </mxGeometry>
        </mxCell>
        <mxCell id="1eCSTTwg-2aaGd2EnfkB-43" value="" style="shape=tableRow;horizontal=0;startSize=0;swimlaneHead=0;swimlaneBody=0;top=0;left=0;bottom=0;right=0;collapsible=0;dropTarget=0;fillColor=none;points=[[0,0.5],[1,0.5]];portConstraint=eastwest;strokeColor=inherit;fontSize=16;align=center;" parent="1eCSTTwg-2aaGd2EnfkB-39" vertex="1">
          <mxGeometry y="50" width="269" height="30" as="geometry" />
        </mxCell>
        <mxCell id="1eCSTTwg-2aaGd2EnfkB-44" value="review_id" style="shape=partialRectangle;html=1;whiteSpace=wrap;connectable=0;fillColor=none;top=0;left=0;bottom=0;right=0;overflow=hidden;strokeColor=inherit;fontSize=16;align=center;" parent="1eCSTTwg-2aaGd2EnfkB-43" vertex="1">
          <mxGeometry width="134" height="30" as="geometry">
            <mxRectangle width="134" height="30" as="alternateBounds" />
          </mxGeometry>
        </mxCell>
        <mxCell id="1eCSTTwg-2aaGd2EnfkB-45" value="integer" style="shape=partialRectangle;html=1;whiteSpace=wrap;connectable=0;fillColor=none;top=0;left=0;bottom=0;right=0;align=center;spacingLeft=6;overflow=hidden;strokeColor=inherit;fontSize=16;" parent="1eCSTTwg-2aaGd2EnfkB-43" vertex="1">
          <mxGeometry x="134" width="135" height="30" as="geometry">
            <mxRectangle width="135" height="30" as="alternateBounds" />
          </mxGeometry>
        </mxCell>
        <mxCell id="1eCSTTwg-2aaGd2EnfkB-46" value="" style="shape=tableRow;horizontal=0;startSize=0;swimlaneHead=0;swimlaneBody=0;top=0;left=0;bottom=0;right=0;collapsible=0;dropTarget=0;fillColor=none;points=[[0,0.5],[1,0.5]];portConstraint=eastwest;strokeColor=inherit;fontSize=16;align=center;" parent="1eCSTTwg-2aaGd2EnfkB-39" vertex="1">
          <mxGeometry y="80" width="269" height="30" as="geometry" />
        </mxCell>
        <mxCell id="1eCSTTwg-2aaGd2EnfkB-47" value="content" style="shape=partialRectangle;html=1;whiteSpace=wrap;connectable=0;fillColor=none;top=0;left=0;bottom=0;right=0;overflow=hidden;strokeColor=inherit;fontSize=16;align=center;" parent="1eCSTTwg-2aaGd2EnfkB-46" vertex="1">
          <mxGeometry width="134" height="30" as="geometry">
            <mxRectangle width="134" height="30" as="alternateBounds" />
          </mxGeometry>
        </mxCell>
        <mxCell id="1eCSTTwg-2aaGd2EnfkB-48" value="text" style="shape=partialRectangle;html=1;whiteSpace=wrap;connectable=0;fillColor=none;top=0;left=0;bottom=0;right=0;align=center;spacingLeft=6;overflow=hidden;strokeColor=inherit;fontSize=16;" parent="1eCSTTwg-2aaGd2EnfkB-46" vertex="1">
          <mxGeometry x="134" width="135" height="30" as="geometry">
            <mxRectangle width="135" height="30" as="alternateBounds" />
          </mxGeometry>
        </mxCell>
        <mxCell id="1eCSTTwg-2aaGd2EnfkB-49" value="" style="shape=tableRow;horizontal=0;startSize=0;swimlaneHead=0;swimlaneBody=0;top=0;left=0;bottom=0;right=0;collapsible=0;dropTarget=0;fillColor=none;points=[[0,0.5],[1,0.5]];portConstraint=eastwest;strokeColor=inherit;fontSize=16;align=center;" parent="1eCSTTwg-2aaGd2EnfkB-39" vertex="1">
          <mxGeometry y="110" width="269" height="30" as="geometry" />
        </mxCell>
        <mxCell id="1eCSTTwg-2aaGd2EnfkB-50" value="user_id" style="shape=partialRectangle;html=1;whiteSpace=wrap;connectable=0;fillColor=none;top=0;left=0;bottom=0;right=0;overflow=hidden;strokeColor=inherit;fontSize=16;align=center;" parent="1eCSTTwg-2aaGd2EnfkB-49" vertex="1">
          <mxGeometry width="134" height="30" as="geometry">
            <mxRectangle width="134" height="30" as="alternateBounds" />
          </mxGeometry>
        </mxCell>
        <mxCell id="1eCSTTwg-2aaGd2EnfkB-51" value="integer" style="shape=partialRectangle;html=1;whiteSpace=wrap;connectable=0;fillColor=none;top=0;left=0;bottom=0;right=0;align=center;spacingLeft=6;overflow=hidden;strokeColor=inherit;fontSize=16;" parent="1eCSTTwg-2aaGd2EnfkB-49" vertex="1">
          <mxGeometry x="134" width="135" height="30" as="geometry">
            <mxRectangle width="135" height="30" as="alternateBounds" />
          </mxGeometry>
        </mxCell>
        <mxCell id="1eCSTTwg-2aaGd2EnfkB-52" value="" style="shape=tableRow;horizontal=0;startSize=0;swimlaneHead=0;swimlaneBody=0;top=0;left=0;bottom=0;right=0;collapsible=0;dropTarget=0;fillColor=none;points=[[0,0.5],[1,0.5]];portConstraint=eastwest;strokeColor=inherit;fontSize=16;align=center;" parent="1eCSTTwg-2aaGd2EnfkB-39" vertex="1">
          <mxGeometry y="140" width="269" height="30" as="geometry" />
        </mxCell>
        <mxCell id="1eCSTTwg-2aaGd2EnfkB-53" value="created_at" style="shape=partialRectangle;html=1;whiteSpace=wrap;connectable=0;fillColor=none;top=0;left=0;bottom=0;right=0;overflow=hidden;strokeColor=inherit;fontSize=16;align=center;" parent="1eCSTTwg-2aaGd2EnfkB-52" vertex="1">
          <mxGeometry width="134" height="30" as="geometry">
            <mxRectangle width="134" height="30" as="alternateBounds" />
          </mxGeometry>
        </mxCell>
        <mxCell id="1eCSTTwg-2aaGd2EnfkB-54" value="datetime" style="shape=partialRectangle;html=1;whiteSpace=wrap;connectable=0;fillColor=none;top=0;left=0;bottom=0;right=0;align=center;spacingLeft=6;overflow=hidden;strokeColor=inherit;fontSize=16;" parent="1eCSTTwg-2aaGd2EnfkB-52" vertex="1">
          <mxGeometry x="134" width="135" height="30" as="geometry">
            <mxRectangle width="135" height="30" as="alternateBounds" />
          </mxGeometry>
        </mxCell>
        <mxCell id="1eCSTTwg-2aaGd2EnfkB-55" value="" style="shape=tableRow;horizontal=0;startSize=0;swimlaneHead=0;swimlaneBody=0;top=0;left=0;bottom=0;right=0;collapsible=0;dropTarget=0;fillColor=none;points=[[0,0.5],[1,0.5]];portConstraint=eastwest;strokeColor=inherit;fontSize=16;align=center;" parent="1eCSTTwg-2aaGd2EnfkB-39" vertex="1">
          <mxGeometry y="170" width="269" height="30" as="geometry" />
        </mxCell>
        <mxCell id="1eCSTTwg-2aaGd2EnfkB-56" value="updated_at" style="shape=partialRectangle;html=1;whiteSpace=wrap;connectable=0;fillColor=none;top=0;left=0;bottom=0;right=0;overflow=hidden;strokeColor=inherit;fontSize=16;align=center;" parent="1eCSTTwg-2aaGd2EnfkB-55" vertex="1">
          <mxGeometry width="134" height="30" as="geometry">
            <mxRectangle width="134" height="30" as="alternateBounds" />
          </mxGeometry>
        </mxCell>
        <mxCell id="1eCSTTwg-2aaGd2EnfkB-57" value="datetime" style="shape=partialRectangle;html=1;whiteSpace=wrap;connectable=0;fillColor=none;top=0;left=0;bottom=0;right=0;align=center;spacingLeft=6;overflow=hidden;strokeColor=inherit;fontSize=16;" parent="1eCSTTwg-2aaGd2EnfkB-55" vertex="1">
          <mxGeometry x="134" width="135" height="30" as="geometry">
            <mxRectangle width="135" height="30" as="alternateBounds" />
          </mxGeometry>
        </mxCell>
        <mxCell id="1eCSTTwg-2aaGd2EnfkB-98" value="communitys_playlist_like" style="shape=table;startSize=30;container=1;collapsible=0;childLayout=tableLayout;fixedRows=1;rowLines=0;fontStyle=0;strokeColor=default;fontSize=16;rounded=1;align=center;fillColor=#CCFFCC;" parent="1" vertex="1">
          <mxGeometry x="1200" y="-110" width="230" height="114" as="geometry" />
        </mxCell>
        <mxCell id="1eCSTTwg-2aaGd2EnfkB-99" value="" style="shape=tableRow;horizontal=0;startSize=0;swimlaneHead=0;swimlaneBody=0;top=0;left=0;bottom=0;right=0;collapsible=0;dropTarget=0;fillColor=none;points=[[0,0.5],[1,0.5]];portConstraint=eastwest;strokeColor=inherit;fontSize=16;align=center;" parent="1eCSTTwg-2aaGd2EnfkB-98" vertex="1">
          <mxGeometry y="30" width="230" height="24" as="geometry" />
        </mxCell>
        <mxCell id="1eCSTTwg-2aaGd2EnfkB-100" value="id" style="shape=partialRectangle;html=1;whiteSpace=wrap;connectable=0;fillColor=none;top=0;left=0;bottom=0;right=0;overflow=hidden;pointerEvents=1;strokeColor=inherit;fontSize=16;align=center;" parent="1eCSTTwg-2aaGd2EnfkB-99" vertex="1">
          <mxGeometry width="111" height="24" as="geometry">
            <mxRectangle width="111" height="24" as="alternateBounds" />
          </mxGeometry>
        </mxCell>
        <mxCell id="1eCSTTwg-2aaGd2EnfkB-101" value="integer" style="shape=partialRectangle;html=1;whiteSpace=wrap;connectable=0;fillColor=none;top=0;left=0;bottom=0;right=0;align=center;spacingLeft=6;overflow=hidden;strokeColor=inherit;fontSize=16;" parent="1eCSTTwg-2aaGd2EnfkB-99" vertex="1">
          <mxGeometry x="111" width="119" height="24" as="geometry">
            <mxRectangle width="119" height="24" as="alternateBounds" />
          </mxGeometry>
        </mxCell>
        <mxCell id="1eCSTTwg-2aaGd2EnfkB-102" value="" style="shape=tableRow;horizontal=0;startSize=0;swimlaneHead=0;swimlaneBody=0;top=0;left=0;bottom=0;right=0;collapsible=0;dropTarget=0;fillColor=none;points=[[0,0.5],[1,0.5]];portConstraint=eastwest;strokeColor=inherit;fontSize=16;align=center;" parent="1eCSTTwg-2aaGd2EnfkB-98" vertex="1">
          <mxGeometry y="54" width="230" height="30" as="geometry" />
        </mxCell>
        <mxCell id="1eCSTTwg-2aaGd2EnfkB-103" value="playlist_id" style="shape=partialRectangle;html=1;whiteSpace=wrap;connectable=0;fillColor=none;top=0;left=0;bottom=0;right=0;overflow=hidden;strokeColor=inherit;fontSize=16;align=center;" parent="1eCSTTwg-2aaGd2EnfkB-102" vertex="1">
          <mxGeometry width="111" height="30" as="geometry">
            <mxRectangle width="111" height="30" as="alternateBounds" />
          </mxGeometry>
        </mxCell>
        <mxCell id="1eCSTTwg-2aaGd2EnfkB-104" value="varchar" style="shape=partialRectangle;html=1;whiteSpace=wrap;connectable=0;fillColor=none;top=0;left=0;bottom=0;right=0;align=center;spacingLeft=6;overflow=hidden;strokeColor=inherit;fontSize=16;" parent="1eCSTTwg-2aaGd2EnfkB-102" vertex="1">
          <mxGeometry x="111" width="119" height="30" as="geometry">
            <mxRectangle width="119" height="30" as="alternateBounds" />
          </mxGeometry>
        </mxCell>
        <mxCell id="1eCSTTwg-2aaGd2EnfkB-105" value="" style="shape=tableRow;horizontal=0;startSize=0;swimlaneHead=0;swimlaneBody=0;top=0;left=0;bottom=0;right=0;collapsible=0;dropTarget=0;fillColor=none;points=[[0,0.5],[1,0.5]];portConstraint=eastwest;strokeColor=inherit;fontSize=16;align=center;" parent="1eCSTTwg-2aaGd2EnfkB-98" vertex="1">
          <mxGeometry y="84" width="230" height="30" as="geometry" />
        </mxCell>
        <mxCell id="1eCSTTwg-2aaGd2EnfkB-106" value="user_id" style="shape=partialRectangle;html=1;whiteSpace=wrap;connectable=0;fillColor=none;top=0;left=0;bottom=0;right=0;overflow=hidden;strokeColor=inherit;fontSize=16;align=center;" parent="1eCSTTwg-2aaGd2EnfkB-105" vertex="1">
          <mxGeometry width="111" height="30" as="geometry">
            <mxRectangle width="111" height="30" as="alternateBounds" />
          </mxGeometry>
        </mxCell>
        <mxCell id="1eCSTTwg-2aaGd2EnfkB-107" value="integer" style="shape=partialRectangle;html=1;whiteSpace=wrap;connectable=0;fillColor=none;top=0;left=0;bottom=0;right=0;align=center;spacingLeft=6;overflow=hidden;strokeColor=inherit;fontSize=16;" parent="1eCSTTwg-2aaGd2EnfkB-105" vertex="1">
          <mxGeometry x="111" width="119" height="30" as="geometry">
            <mxRectangle width="119" height="30" as="alternateBounds" />
          </mxGeometry>
        </mxCell>
        <mxCell id="NMdTjbtGDUU_QRpKEMsv-7" value="movies_total_movies" style="shape=table;startSize=30;container=1;collapsible=0;childLayout=tableLayout;fixedRows=1;rowLines=0;fontStyle=0;strokeColor=default;fontSize=16;rounded=1;align=center;shadow=0;fillColor=#E6D0DE;" parent="1" vertex="1">
          <mxGeometry x="450" y="-170" width="242" height="324" as="geometry" />
        </mxCell>
        <mxCell id="NMdTjbtGDUU_QRpKEMsv-8" value="" style="shape=tableRow;horizontal=0;startSize=0;swimlaneHead=0;swimlaneBody=0;top=0;left=0;bottom=0;right=0;collapsible=0;dropTarget=0;fillColor=none;points=[[0,0.5],[1,0.5]];portConstraint=eastwest;strokeColor=inherit;fontSize=16;align=center;" parent="NMdTjbtGDUU_QRpKEMsv-7" vertex="1">
          <mxGeometry y="30" width="242" height="24" as="geometry" />
        </mxCell>
        <mxCell id="NMdTjbtGDUU_QRpKEMsv-9" value="id" style="shape=partialRectangle;html=1;whiteSpace=wrap;connectable=0;fillColor=none;top=0;left=0;bottom=0;right=0;overflow=hidden;pointerEvents=1;strokeColor=inherit;fontSize=16;align=center;" parent="NMdTjbtGDUU_QRpKEMsv-8" vertex="1">
          <mxGeometry width="119" height="24" as="geometry">
            <mxRectangle width="119" height="24" as="alternateBounds" />
          </mxGeometry>
        </mxCell>
        <mxCell id="NMdTjbtGDUU_QRpKEMsv-10" value="integer" style="shape=partialRectangle;html=1;whiteSpace=wrap;connectable=0;fillColor=none;top=0;left=0;bottom=0;right=0;align=center;spacingLeft=6;overflow=hidden;strokeColor=inherit;fontSize=16;" parent="NMdTjbtGDUU_QRpKEMsv-8" vertex="1">
          <mxGeometry x="119" width="123" height="24" as="geometry">
            <mxRectangle width="123" height="24" as="alternateBounds" />
          </mxGeometry>
        </mxCell>
        <mxCell id="NMdTjbtGDUU_QRpKEMsv-11" value="" style="shape=tableRow;horizontal=0;startSize=0;swimlaneHead=0;swimlaneBody=0;top=0;left=0;bottom=0;right=0;collapsible=0;dropTarget=0;fillColor=none;points=[[0,0.5],[1,0.5]];portConstraint=eastwest;strokeColor=inherit;fontSize=16;align=center;" parent="NMdTjbtGDUU_QRpKEMsv-7" vertex="1">
          <mxGeometry y="54" width="242" height="30" as="geometry" />
        </mxCell>
        <mxCell id="NMdTjbtGDUU_QRpKEMsv-12" value="title" style="shape=partialRectangle;html=1;whiteSpace=wrap;connectable=0;fillColor=none;top=0;left=0;bottom=0;right=0;overflow=hidden;strokeColor=inherit;fontSize=16;align=center;" parent="NMdTjbtGDUU_QRpKEMsv-11" vertex="1">
          <mxGeometry width="119" height="30" as="geometry">
            <mxRectangle width="119" height="30" as="alternateBounds" />
          </mxGeometry>
        </mxCell>
        <mxCell id="NMdTjbtGDUU_QRpKEMsv-13" value="varchar(100)" style="shape=partialRectangle;html=1;whiteSpace=wrap;connectable=0;fillColor=none;top=0;left=0;bottom=0;right=0;align=center;spacingLeft=6;overflow=hidden;strokeColor=inherit;fontSize=16;" parent="NMdTjbtGDUU_QRpKEMsv-11" vertex="1">
          <mxGeometry x="119" width="123" height="30" as="geometry">
            <mxRectangle width="123" height="30" as="alternateBounds" />
          </mxGeometry>
        </mxCell>
        <mxCell id="NMdTjbtGDUU_QRpKEMsv-14" value="" style="shape=tableRow;horizontal=0;startSize=0;swimlaneHead=0;swimlaneBody=0;top=0;left=0;bottom=0;right=0;collapsible=0;dropTarget=0;fillColor=none;points=[[0,0.5],[1,0.5]];portConstraint=eastwest;strokeColor=inherit;fontSize=16;align=center;" parent="NMdTjbtGDUU_QRpKEMsv-7" vertex="1">
          <mxGeometry y="84" width="242" height="30" as="geometry" />
        </mxCell>
        <mxCell id="NMdTjbtGDUU_QRpKEMsv-15" value="release_data" style="shape=partialRectangle;html=1;whiteSpace=wrap;connectable=0;fillColor=none;top=0;left=0;bottom=0;right=0;overflow=hidden;strokeColor=inherit;fontSize=16;align=center;" parent="NMdTjbtGDUU_QRpKEMsv-14" vertex="1">
          <mxGeometry width="119" height="30" as="geometry">
            <mxRectangle width="119" height="30" as="alternateBounds" />
          </mxGeometry>
        </mxCell>
        <mxCell id="NMdTjbtGDUU_QRpKEMsv-16" value="date" style="shape=partialRectangle;html=1;whiteSpace=wrap;connectable=0;fillColor=none;top=0;left=0;bottom=0;right=0;align=center;spacingLeft=6;overflow=hidden;strokeColor=inherit;fontSize=16;" parent="NMdTjbtGDUU_QRpKEMsv-14" vertex="1">
          <mxGeometry x="119" width="123" height="30" as="geometry">
            <mxRectangle width="123" height="30" as="alternateBounds" />
          </mxGeometry>
        </mxCell>
        <mxCell id="NMdTjbtGDUU_QRpKEMsv-20" value="" style="shape=tableRow;horizontal=0;startSize=0;swimlaneHead=0;swimlaneBody=0;top=0;left=0;bottom=0;right=0;collapsible=0;dropTarget=0;fillColor=none;points=[[0,0.5],[1,0.5]];portConstraint=eastwest;strokeColor=inherit;fontSize=16;align=center;" parent="NMdTjbtGDUU_QRpKEMsv-7" vertex="1">
          <mxGeometry y="114" width="242" height="30" as="geometry" />
        </mxCell>
        <mxCell id="NMdTjbtGDUU_QRpKEMsv-21" value="overview" style="shape=partialRectangle;html=1;whiteSpace=wrap;connectable=0;fillColor=none;top=0;left=0;bottom=0;right=0;overflow=hidden;strokeColor=inherit;fontSize=16;align=center;" parent="NMdTjbtGDUU_QRpKEMsv-20" vertex="1">
          <mxGeometry width="119" height="30" as="geometry">
            <mxRectangle width="119" height="30" as="alternateBounds" />
          </mxGeometry>
        </mxCell>
        <mxCell id="NMdTjbtGDUU_QRpKEMsv-22" value="text" style="shape=partialRectangle;html=1;whiteSpace=wrap;connectable=0;fillColor=none;top=0;left=0;bottom=0;right=0;align=center;spacingLeft=6;overflow=hidden;strokeColor=inherit;fontSize=16;" parent="NMdTjbtGDUU_QRpKEMsv-20" vertex="1">
          <mxGeometry x="119" width="123" height="30" as="geometry">
            <mxRectangle width="123" height="30" as="alternateBounds" />
          </mxGeometry>
        </mxCell>
        <mxCell id="NMdTjbtGDUU_QRpKEMsv-23" value="" style="shape=tableRow;horizontal=0;startSize=0;swimlaneHead=0;swimlaneBody=0;top=0;left=0;bottom=0;right=0;collapsible=0;dropTarget=0;fillColor=none;points=[[0,0.5],[1,0.5]];portConstraint=eastwest;strokeColor=inherit;fontSize=16;align=center;" parent="NMdTjbtGDUU_QRpKEMsv-7" vertex="1">
          <mxGeometry y="144" width="242" height="30" as="geometry" />
        </mxCell>
        <mxCell id="NMdTjbtGDUU_QRpKEMsv-24" value="poster_path" style="shape=partialRectangle;html=1;whiteSpace=wrap;connectable=0;fillColor=none;top=0;left=0;bottom=0;right=0;overflow=hidden;strokeColor=inherit;fontSize=16;align=center;" parent="NMdTjbtGDUU_QRpKEMsv-23" vertex="1">
          <mxGeometry width="119" height="30" as="geometry">
            <mxRectangle width="119" height="30" as="alternateBounds" />
          </mxGeometry>
        </mxCell>
        <mxCell id="NMdTjbtGDUU_QRpKEMsv-25" value="text" style="shape=partialRectangle;html=1;whiteSpace=wrap;connectable=0;fillColor=none;top=0;left=0;bottom=0;right=0;align=center;spacingLeft=6;overflow=hidden;strokeColor=inherit;fontSize=16;" parent="NMdTjbtGDUU_QRpKEMsv-23" vertex="1">
          <mxGeometry x="119" width="123" height="30" as="geometry">
            <mxRectangle width="123" height="30" as="alternateBounds" />
          </mxGeometry>
        </mxCell>
        <mxCell id="NMdTjbtGDUU_QRpKEMsv-43" value="" style="shape=tableRow;horizontal=0;startSize=0;swimlaneHead=0;swimlaneBody=0;top=0;left=0;bottom=0;right=0;collapsible=0;dropTarget=0;fillColor=none;points=[[0,0.5],[1,0.5]];portConstraint=eastwest;strokeColor=inherit;fontSize=16;align=center;" parent="NMdTjbtGDUU_QRpKEMsv-7" vertex="1">
          <mxGeometry y="174" width="242" height="30" as="geometry" />
        </mxCell>
        <mxCell id="NMdTjbtGDUU_QRpKEMsv-44" value="vote_average" style="shape=partialRectangle;html=1;whiteSpace=wrap;connectable=0;fillColor=none;top=0;left=0;bottom=0;right=0;overflow=hidden;strokeColor=inherit;fontSize=16;align=center;" parent="NMdTjbtGDUU_QRpKEMsv-43" vertex="1">
          <mxGeometry width="119" height="30" as="geometry">
            <mxRectangle width="119" height="30" as="alternateBounds" />
          </mxGeometry>
        </mxCell>
        <mxCell id="NMdTjbtGDUU_QRpKEMsv-45" value="float" style="shape=partialRectangle;html=1;whiteSpace=wrap;connectable=0;fillColor=none;top=0;left=0;bottom=0;right=0;align=center;spacingLeft=6;overflow=hidden;strokeColor=inherit;fontSize=16;" parent="NMdTjbtGDUU_QRpKEMsv-43" vertex="1">
          <mxGeometry x="119" width="123" height="30" as="geometry">
            <mxRectangle width="123" height="30" as="alternateBounds" />
          </mxGeometry>
        </mxCell>
        <mxCell id="NMdTjbtGDUU_QRpKEMsv-46" value="" style="shape=tableRow;horizontal=0;startSize=0;swimlaneHead=0;swimlaneBody=0;top=0;left=0;bottom=0;right=0;collapsible=0;dropTarget=0;fillColor=none;points=[[0,0.5],[1,0.5]];portConstraint=eastwest;strokeColor=inherit;fontSize=16;align=center;" parent="NMdTjbtGDUU_QRpKEMsv-7" vertex="1">
          <mxGeometry y="204" width="242" height="30" as="geometry" />
        </mxCell>
        <mxCell id="NMdTjbtGDUU_QRpKEMsv-47" value="popularity" style="shape=partialRectangle;html=1;whiteSpace=wrap;connectable=0;fillColor=none;top=0;left=0;bottom=0;right=0;overflow=hidden;strokeColor=inherit;fontSize=16;align=center;" parent="NMdTjbtGDUU_QRpKEMsv-46" vertex="1">
          <mxGeometry width="119" height="30" as="geometry">
            <mxRectangle width="119" height="30" as="alternateBounds" />
          </mxGeometry>
        </mxCell>
        <mxCell id="NMdTjbtGDUU_QRpKEMsv-48" value="float" style="shape=partialRectangle;html=1;whiteSpace=wrap;connectable=0;fillColor=none;top=0;left=0;bottom=0;right=0;align=center;spacingLeft=6;overflow=hidden;strokeColor=inherit;fontSize=16;" parent="NMdTjbtGDUU_QRpKEMsv-46" vertex="1">
          <mxGeometry x="119" width="123" height="30" as="geometry">
            <mxRectangle width="123" height="30" as="alternateBounds" />
          </mxGeometry>
        </mxCell>
        <mxCell id="NMdTjbtGDUU_QRpKEMsv-49" value="" style="shape=tableRow;horizontal=0;startSize=0;swimlaneHead=0;swimlaneBody=0;top=0;left=0;bottom=0;right=0;collapsible=0;dropTarget=0;fillColor=none;points=[[0,0.5],[1,0.5]];portConstraint=eastwest;strokeColor=inherit;fontSize=16;align=center;" parent="NMdTjbtGDUU_QRpKEMsv-7" vertex="1">
          <mxGeometry y="234" width="242" height="30" as="geometry" />
        </mxCell>
        <mxCell id="NMdTjbtGDUU_QRpKEMsv-50" value="genres" style="shape=partialRectangle;html=1;whiteSpace=wrap;connectable=0;fillColor=none;top=0;left=0;bottom=0;right=0;overflow=hidden;strokeColor=inherit;fontSize=16;align=center;" parent="NMdTjbtGDUU_QRpKEMsv-49" vertex="1">
          <mxGeometry width="119" height="30" as="geometry">
            <mxRectangle width="119" height="30" as="alternateBounds" />
          </mxGeometry>
        </mxCell>
        <mxCell id="NMdTjbtGDUU_QRpKEMsv-51" value="varchar" style="shape=partialRectangle;html=1;whiteSpace=wrap;connectable=0;fillColor=none;top=0;left=0;bottom=0;right=0;align=center;spacingLeft=6;overflow=hidden;strokeColor=inherit;fontSize=16;" parent="NMdTjbtGDUU_QRpKEMsv-49" vertex="1">
          <mxGeometry x="119" width="123" height="30" as="geometry">
            <mxRectangle width="123" height="30" as="alternateBounds" />
          </mxGeometry>
        </mxCell>
        <mxCell id="NMdTjbtGDUU_QRpKEMsv-59" value="" style="shape=tableRow;horizontal=0;startSize=0;swimlaneHead=0;swimlaneBody=0;top=0;left=0;bottom=0;right=0;collapsible=0;dropTarget=0;fillColor=none;points=[[0,0.5],[1,0.5]];portConstraint=eastwest;strokeColor=inherit;fontSize=16;align=center;" parent="NMdTjbtGDUU_QRpKEMsv-7" vertex="1">
          <mxGeometry y="264" width="242" height="30" as="geometry" />
        </mxCell>
        <mxCell id="NMdTjbtGDUU_QRpKEMsv-60" value="youtube_key" style="shape=partialRectangle;html=1;whiteSpace=wrap;connectable=0;fillColor=none;top=0;left=0;bottom=0;right=0;overflow=hidden;strokeColor=inherit;fontSize=16;align=center;" parent="NMdTjbtGDUU_QRpKEMsv-59" vertex="1">
          <mxGeometry width="119" height="30" as="geometry">
            <mxRectangle width="119" height="30" as="alternateBounds" />
          </mxGeometry>
        </mxCell>
        <mxCell id="NMdTjbtGDUU_QRpKEMsv-61" value="varchar" style="shape=partialRectangle;html=1;whiteSpace=wrap;connectable=0;fillColor=none;top=0;left=0;bottom=0;right=0;align=center;spacingLeft=6;overflow=hidden;strokeColor=inherit;fontSize=16;" parent="NMdTjbtGDUU_QRpKEMsv-59" vertex="1">
          <mxGeometry x="119" width="123" height="30" as="geometry">
            <mxRectangle width="123" height="30" as="alternateBounds" />
          </mxGeometry>
        </mxCell>
        <mxCell id="NMdTjbtGDUU_QRpKEMsv-62" value="" style="shape=tableRow;horizontal=0;startSize=0;swimlaneHead=0;swimlaneBody=0;top=0;left=0;bottom=0;right=0;collapsible=0;dropTarget=0;fillColor=none;points=[[0,0.5],[1,0.5]];portConstraint=eastwest;strokeColor=inherit;fontSize=16;align=center;" parent="NMdTjbtGDUU_QRpKEMsv-7" vertex="1">
          <mxGeometry y="294" width="242" height="30" as="geometry" />
        </mxCell>
        <mxCell id="NMdTjbtGDUU_QRpKEMsv-63" value="runtime" style="shape=partialRectangle;html=1;whiteSpace=wrap;connectable=0;fillColor=none;top=0;left=0;bottom=0;right=0;overflow=hidden;strokeColor=inherit;fontSize=16;align=center;" parent="NMdTjbtGDUU_QRpKEMsv-62" vertex="1">
          <mxGeometry width="119" height="30" as="geometry">
            <mxRectangle width="119" height="30" as="alternateBounds" />
          </mxGeometry>
        </mxCell>
        <mxCell id="NMdTjbtGDUU_QRpKEMsv-64" value="runtime" style="shape=partialRectangle;html=1;whiteSpace=wrap;connectable=0;fillColor=none;top=0;left=0;bottom=0;right=0;align=center;spacingLeft=6;overflow=hidden;strokeColor=inherit;fontSize=16;" parent="NMdTjbtGDUU_QRpKEMsv-62" vertex="1">
          <mxGeometry x="119" width="123" height="30" as="geometry">
            <mxRectangle width="123" height="30" as="alternateBounds" />
          </mxGeometry>
        </mxCell>
        <mxCell id="NMdTjbtGDUU_QRpKEMsv-52" value="" style="line;strokeWidth=1;html=1;perimeter=backbonePerimeter;points=[];outlineConnect=0;align=center;" parent="1" vertex="1">
          <mxGeometry x="450" y="-120" width="243" height="10" as="geometry" />
        </mxCell>
        <mxCell id="NMdTjbtGDUU_QRpKEMsv-65" value="movies_popular_movies" style="shape=table;startSize=30;container=1;collapsible=0;childLayout=tableLayout;fixedRows=1;rowLines=0;fontStyle=0;strokeColor=default;fontSize=16;rounded=1;align=center;shadow=0;fillColor=#E6D0DE;verticalAlign=middle;direction=east;" parent="1" vertex="1">
          <mxGeometry x="451" y="-510" width="242" height="300" as="geometry" />
        </mxCell>
        <mxCell id="NMdTjbtGDUU_QRpKEMsv-66" value="" style="shape=tableRow;horizontal=0;startSize=0;swimlaneHead=0;swimlaneBody=0;top=0;left=0;bottom=0;right=0;collapsible=0;dropTarget=0;fillColor=none;points=[[0,0.5],[1,0.5]];portConstraint=eastwest;strokeColor=inherit;fontSize=16;align=center;" parent="NMdTjbtGDUU_QRpKEMsv-65" vertex="1">
          <mxGeometry y="30" width="242" height="24" as="geometry" />
        </mxCell>
        <mxCell id="NMdTjbtGDUU_QRpKEMsv-67" value="id" style="shape=partialRectangle;html=1;whiteSpace=wrap;connectable=0;fillColor=none;top=0;left=0;bottom=0;right=0;overflow=hidden;pointerEvents=1;strokeColor=inherit;fontSize=16;align=center;" parent="NMdTjbtGDUU_QRpKEMsv-66" vertex="1">
          <mxGeometry width="119" height="24" as="geometry">
            <mxRectangle width="119" height="24" as="alternateBounds" />
          </mxGeometry>
        </mxCell>
        <mxCell id="NMdTjbtGDUU_QRpKEMsv-68" value="integer" style="shape=partialRectangle;html=1;whiteSpace=wrap;connectable=0;fillColor=none;top=0;left=0;bottom=0;right=0;align=center;spacingLeft=6;overflow=hidden;strokeColor=inherit;fontSize=16;" parent="NMdTjbtGDUU_QRpKEMsv-66" vertex="1">
          <mxGeometry x="119" width="123" height="24" as="geometry">
            <mxRectangle width="123" height="24" as="alternateBounds" />
          </mxGeometry>
        </mxCell>
        <mxCell id="NMdTjbtGDUU_QRpKEMsv-69" value="" style="shape=tableRow;horizontal=0;startSize=0;swimlaneHead=0;swimlaneBody=0;top=0;left=0;bottom=0;right=0;collapsible=0;dropTarget=0;fillColor=none;points=[[0,0.5],[1,0.5]];portConstraint=eastwest;strokeColor=inherit;fontSize=16;align=center;" parent="NMdTjbtGDUU_QRpKEMsv-65" vertex="1">
          <mxGeometry y="54" width="242" height="30" as="geometry" />
        </mxCell>
        <mxCell id="NMdTjbtGDUU_QRpKEMsv-70" value="title" style="shape=partialRectangle;html=1;whiteSpace=wrap;connectable=0;fillColor=none;top=0;left=0;bottom=0;right=0;overflow=hidden;strokeColor=inherit;fontSize=16;align=center;" parent="NMdTjbtGDUU_QRpKEMsv-69" vertex="1">
          <mxGeometry width="119" height="30" as="geometry">
            <mxRectangle width="119" height="30" as="alternateBounds" />
          </mxGeometry>
        </mxCell>
        <mxCell id="NMdTjbtGDUU_QRpKEMsv-71" value="varchar(100)" style="shape=partialRectangle;html=1;whiteSpace=wrap;connectable=0;fillColor=none;top=0;left=0;bottom=0;right=0;align=center;spacingLeft=6;overflow=hidden;strokeColor=inherit;fontSize=16;" parent="NMdTjbtGDUU_QRpKEMsv-69" vertex="1">
          <mxGeometry x="119" width="123" height="30" as="geometry">
            <mxRectangle width="123" height="30" as="alternateBounds" />
          </mxGeometry>
        </mxCell>
        <mxCell id="NMdTjbtGDUU_QRpKEMsv-72" value="" style="shape=tableRow;horizontal=0;startSize=0;swimlaneHead=0;swimlaneBody=0;top=0;left=0;bottom=0;right=0;collapsible=0;dropTarget=0;fillColor=none;points=[[0,0.5],[1,0.5]];portConstraint=eastwest;strokeColor=inherit;fontSize=16;align=center;" parent="NMdTjbtGDUU_QRpKEMsv-65" vertex="1">
          <mxGeometry y="84" width="242" height="30" as="geometry" />
        </mxCell>
        <mxCell id="NMdTjbtGDUU_QRpKEMsv-73" value="release_data" style="shape=partialRectangle;html=1;whiteSpace=wrap;connectable=0;fillColor=none;top=0;left=0;bottom=0;right=0;overflow=hidden;strokeColor=inherit;fontSize=16;align=center;" parent="NMdTjbtGDUU_QRpKEMsv-72" vertex="1">
          <mxGeometry width="119" height="30" as="geometry">
            <mxRectangle width="119" height="30" as="alternateBounds" />
          </mxGeometry>
        </mxCell>
        <mxCell id="NMdTjbtGDUU_QRpKEMsv-74" value="date" style="shape=partialRectangle;html=1;whiteSpace=wrap;connectable=0;fillColor=none;top=0;left=0;bottom=0;right=0;align=center;spacingLeft=6;overflow=hidden;strokeColor=inherit;fontSize=16;" parent="NMdTjbtGDUU_QRpKEMsv-72" vertex="1">
          <mxGeometry x="119" width="123" height="30" as="geometry">
            <mxRectangle width="123" height="30" as="alternateBounds" />
          </mxGeometry>
        </mxCell>
        <mxCell id="NMdTjbtGDUU_QRpKEMsv-75" value="" style="shape=tableRow;horizontal=0;startSize=0;swimlaneHead=0;swimlaneBody=0;top=0;left=0;bottom=0;right=0;collapsible=0;dropTarget=0;fillColor=none;points=[[0,0.5],[1,0.5]];portConstraint=eastwest;strokeColor=inherit;fontSize=16;align=center;" parent="NMdTjbtGDUU_QRpKEMsv-65" vertex="1">
          <mxGeometry y="114" width="242" height="30" as="geometry" />
        </mxCell>
        <mxCell id="NMdTjbtGDUU_QRpKEMsv-76" value="overview" style="shape=partialRectangle;html=1;whiteSpace=wrap;connectable=0;fillColor=none;top=0;left=0;bottom=0;right=0;overflow=hidden;strokeColor=inherit;fontSize=16;align=center;" parent="NMdTjbtGDUU_QRpKEMsv-75" vertex="1">
          <mxGeometry width="119" height="30" as="geometry">
            <mxRectangle width="119" height="30" as="alternateBounds" />
          </mxGeometry>
        </mxCell>
        <mxCell id="NMdTjbtGDUU_QRpKEMsv-77" value="text" style="shape=partialRectangle;html=1;whiteSpace=wrap;connectable=0;fillColor=none;top=0;left=0;bottom=0;right=0;align=center;spacingLeft=6;overflow=hidden;strokeColor=inherit;fontSize=16;" parent="NMdTjbtGDUU_QRpKEMsv-75" vertex="1">
          <mxGeometry x="119" width="123" height="30" as="geometry">
            <mxRectangle width="123" height="30" as="alternateBounds" />
          </mxGeometry>
        </mxCell>
        <mxCell id="NMdTjbtGDUU_QRpKEMsv-78" value="" style="shape=tableRow;horizontal=0;startSize=0;swimlaneHead=0;swimlaneBody=0;top=0;left=0;bottom=0;right=0;collapsible=0;dropTarget=0;fillColor=none;points=[[0,0.5],[1,0.5]];portConstraint=eastwest;strokeColor=inherit;fontSize=16;align=center;" parent="NMdTjbtGDUU_QRpKEMsv-65" vertex="1">
          <mxGeometry y="144" width="242" height="36" as="geometry" />
        </mxCell>
        <mxCell id="NMdTjbtGDUU_QRpKEMsv-79" value="poster_path" style="shape=partialRectangle;html=1;whiteSpace=wrap;connectable=0;fillColor=none;top=0;left=0;bottom=0;right=0;overflow=hidden;strokeColor=inherit;fontSize=16;align=center;" parent="NMdTjbtGDUU_QRpKEMsv-78" vertex="1">
          <mxGeometry width="119" height="36" as="geometry">
            <mxRectangle width="119" height="36" as="alternateBounds" />
          </mxGeometry>
        </mxCell>
        <mxCell id="NMdTjbtGDUU_QRpKEMsv-80" value="text" style="shape=partialRectangle;whiteSpace=wrap;connectable=0;fillColor=none;top=0;left=0;bottom=0;right=0;align=center;spacingLeft=6;overflow=hidden;strokeColor=inherit;fontSize=16;" parent="NMdTjbtGDUU_QRpKEMsv-78" vertex="1">
          <mxGeometry x="119" width="123" height="36" as="geometry">
            <mxRectangle width="123" height="36" as="alternateBounds" />
          </mxGeometry>
        </mxCell>
        <mxCell id="NMdTjbtGDUU_QRpKEMsv-81" value="" style="shape=tableRow;horizontal=0;startSize=0;swimlaneHead=0;swimlaneBody=0;top=0;left=0;bottom=0;right=0;collapsible=0;dropTarget=0;fillColor=none;points=[[0,0.5],[1,0.5]];portConstraint=eastwest;strokeColor=inherit;fontSize=16;align=center;" parent="NMdTjbtGDUU_QRpKEMsv-65" vertex="1">
          <mxGeometry y="180" width="242" height="30" as="geometry" />
        </mxCell>
        <mxCell id="NMdTjbtGDUU_QRpKEMsv-82" value="vote_average" style="shape=partialRectangle;html=1;whiteSpace=wrap;connectable=0;fillColor=none;top=0;left=0;bottom=0;right=0;overflow=hidden;strokeColor=inherit;fontSize=16;align=center;" parent="NMdTjbtGDUU_QRpKEMsv-81" vertex="1">
          <mxGeometry width="119" height="30" as="geometry">
            <mxRectangle width="119" height="30" as="alternateBounds" />
          </mxGeometry>
        </mxCell>
        <mxCell id="NMdTjbtGDUU_QRpKEMsv-83" value="float" style="shape=partialRectangle;html=1;whiteSpace=wrap;connectable=0;fillColor=none;top=0;left=0;bottom=0;right=0;align=center;spacingLeft=6;overflow=hidden;strokeColor=inherit;fontSize=16;" parent="NMdTjbtGDUU_QRpKEMsv-81" vertex="1">
          <mxGeometry x="119" width="123" height="30" as="geometry">
            <mxRectangle width="123" height="30" as="alternateBounds" />
          </mxGeometry>
        </mxCell>
        <mxCell id="NMdTjbtGDUU_QRpKEMsv-84" value="" style="shape=tableRow;horizontal=0;startSize=0;swimlaneHead=0;swimlaneBody=0;top=0;left=0;bottom=0;right=0;collapsible=0;dropTarget=0;fillColor=none;points=[[0,0.5],[1,0.5]];portConstraint=eastwest;strokeColor=inherit;fontSize=16;align=center;" parent="NMdTjbtGDUU_QRpKEMsv-65" vertex="1">
          <mxGeometry y="210" width="242" height="30" as="geometry" />
        </mxCell>
        <mxCell id="NMdTjbtGDUU_QRpKEMsv-85" value="popularity" style="shape=partialRectangle;html=1;whiteSpace=wrap;connectable=0;fillColor=none;top=0;left=0;bottom=0;right=0;overflow=hidden;strokeColor=inherit;fontSize=16;align=center;" parent="NMdTjbtGDUU_QRpKEMsv-84" vertex="1">
          <mxGeometry width="119" height="30" as="geometry">
            <mxRectangle width="119" height="30" as="alternateBounds" />
          </mxGeometry>
        </mxCell>
        <mxCell id="NMdTjbtGDUU_QRpKEMsv-86" value="float" style="shape=partialRectangle;html=1;whiteSpace=wrap;connectable=0;fillColor=none;top=0;left=0;bottom=0;right=0;align=center;spacingLeft=6;overflow=hidden;strokeColor=inherit;fontSize=16;" parent="NMdTjbtGDUU_QRpKEMsv-84" vertex="1">
          <mxGeometry x="119" width="123" height="30" as="geometry">
            <mxRectangle width="123" height="30" as="alternateBounds" />
          </mxGeometry>
        </mxCell>
        <mxCell id="NMdTjbtGDUU_QRpKEMsv-87" value="" style="shape=tableRow;horizontal=0;startSize=0;swimlaneHead=0;swimlaneBody=0;top=0;left=0;bottom=0;right=0;collapsible=0;dropTarget=0;fillColor=none;points=[[0,0.5],[1,0.5]];portConstraint=eastwest;strokeColor=inherit;fontSize=16;align=center;" parent="NMdTjbtGDUU_QRpKEMsv-65" vertex="1">
          <mxGeometry y="240" width="242" height="30" as="geometry" />
        </mxCell>
        <mxCell id="NMdTjbtGDUU_QRpKEMsv-88" value="genres" style="shape=partialRectangle;html=1;whiteSpace=wrap;connectable=0;fillColor=none;top=0;left=0;bottom=0;right=0;overflow=hidden;strokeColor=inherit;fontSize=16;align=center;" parent="NMdTjbtGDUU_QRpKEMsv-87" vertex="1">
          <mxGeometry width="119" height="30" as="geometry">
            <mxRectangle width="119" height="30" as="alternateBounds" />
          </mxGeometry>
        </mxCell>
        <mxCell id="NMdTjbtGDUU_QRpKEMsv-89" value="varchar" style="shape=partialRectangle;html=1;whiteSpace=wrap;connectable=0;fillColor=none;top=0;left=0;bottom=0;right=0;align=center;spacingLeft=6;overflow=hidden;strokeColor=inherit;fontSize=16;" parent="NMdTjbtGDUU_QRpKEMsv-87" vertex="1">
          <mxGeometry x="119" width="123" height="30" as="geometry">
            <mxRectangle width="123" height="30" as="alternateBounds" />
          </mxGeometry>
        </mxCell>
        <mxCell id="NMdTjbtGDUU_QRpKEMsv-90" value="" style="shape=tableRow;horizontal=0;startSize=0;swimlaneHead=0;swimlaneBody=0;top=0;left=0;bottom=0;right=0;collapsible=0;dropTarget=0;fillColor=none;points=[[0,0.5],[1,0.5]];portConstraint=eastwest;strokeColor=inherit;fontSize=16;align=center;" parent="NMdTjbtGDUU_QRpKEMsv-65" vertex="1">
          <mxGeometry y="270" width="242" height="30" as="geometry" />
        </mxCell>
        <mxCell id="NMdTjbtGDUU_QRpKEMsv-91" value="youtube_key" style="shape=partialRectangle;html=1;whiteSpace=wrap;connectable=0;fillColor=none;top=0;left=0;bottom=0;right=0;overflow=hidden;strokeColor=inherit;fontSize=16;align=center;" parent="NMdTjbtGDUU_QRpKEMsv-90" vertex="1">
          <mxGeometry width="119" height="30" as="geometry">
            <mxRectangle width="119" height="30" as="alternateBounds" />
          </mxGeometry>
        </mxCell>
        <mxCell id="NMdTjbtGDUU_QRpKEMsv-92" value="varchar" style="shape=partialRectangle;html=1;whiteSpace=wrap;connectable=0;fillColor=none;top=0;left=0;bottom=0;right=0;align=center;spacingLeft=6;overflow=hidden;strokeColor=inherit;fontSize=16;" parent="NMdTjbtGDUU_QRpKEMsv-90" vertex="1">
          <mxGeometry x="119" width="123" height="30" as="geometry">
            <mxRectangle width="123" height="30" as="alternateBounds" />
          </mxGeometry>
        </mxCell>
        <mxCell id="NMdTjbtGDUU_QRpKEMsv-96" value="" style="line;strokeWidth=1;html=1;perimeter=backbonePerimeter;points=[];outlineConnect=0;align=center;direction=east;" parent="1" vertex="1">
          <mxGeometry x="450" y="-461" width="243" height="10" as="geometry" />
        </mxCell>
        <mxCell id="NMdTjbtGDUU_QRpKEMsv-97" value="movies_top_rated_movies" style="shape=table;startSize=30;container=1;collapsible=0;childLayout=tableLayout;fixedRows=1;rowLines=0;fontStyle=0;strokeColor=default;fontSize=16;rounded=1;align=center;shadow=0;fillColor=#E6D0DE;" parent="1" vertex="1">
          <mxGeometry x="450" y="190" width="240" height="290" as="geometry" />
        </mxCell>
        <mxCell id="NMdTjbtGDUU_QRpKEMsv-98" value="" style="shape=tableRow;horizontal=0;startSize=0;swimlaneHead=0;swimlaneBody=0;top=0;left=0;bottom=0;right=0;collapsible=0;dropTarget=0;fillColor=none;points=[[0,0.5],[1,0.5]];portConstraint=eastwest;strokeColor=inherit;fontSize=16;align=center;" parent="NMdTjbtGDUU_QRpKEMsv-97" vertex="1">
          <mxGeometry y="30" width="240" height="24" as="geometry" />
        </mxCell>
        <mxCell id="NMdTjbtGDUU_QRpKEMsv-99" value="id" style="shape=partialRectangle;html=1;whiteSpace=wrap;connectable=0;fillColor=none;top=0;left=0;bottom=0;right=0;overflow=hidden;pointerEvents=1;strokeColor=inherit;fontSize=16;align=center;" parent="NMdTjbtGDUU_QRpKEMsv-98" vertex="1">
          <mxGeometry width="119" height="24" as="geometry">
            <mxRectangle width="119" height="24" as="alternateBounds" />
          </mxGeometry>
        </mxCell>
        <mxCell id="NMdTjbtGDUU_QRpKEMsv-100" value="integer" style="shape=partialRectangle;html=1;whiteSpace=wrap;connectable=0;fillColor=none;top=0;left=0;bottom=0;right=0;align=center;spacingLeft=6;overflow=hidden;strokeColor=inherit;fontSize=16;" parent="NMdTjbtGDUU_QRpKEMsv-98" vertex="1">
          <mxGeometry x="119" width="121" height="24" as="geometry">
            <mxRectangle width="121" height="24" as="alternateBounds" />
          </mxGeometry>
        </mxCell>
        <mxCell id="NMdTjbtGDUU_QRpKEMsv-101" value="" style="shape=tableRow;horizontal=0;startSize=0;swimlaneHead=0;swimlaneBody=0;top=0;left=0;bottom=0;right=0;collapsible=0;dropTarget=0;fillColor=none;points=[[0,0.5],[1,0.5]];portConstraint=eastwest;strokeColor=inherit;fontSize=16;align=center;" parent="NMdTjbtGDUU_QRpKEMsv-97" vertex="1">
          <mxGeometry y="54" width="240" height="30" as="geometry" />
        </mxCell>
        <mxCell id="NMdTjbtGDUU_QRpKEMsv-102" value="title" style="shape=partialRectangle;html=1;whiteSpace=wrap;connectable=0;fillColor=none;top=0;left=0;bottom=0;right=0;overflow=hidden;strokeColor=inherit;fontSize=16;align=center;" parent="NMdTjbtGDUU_QRpKEMsv-101" vertex="1">
          <mxGeometry width="119" height="30" as="geometry">
            <mxRectangle width="119" height="30" as="alternateBounds" />
          </mxGeometry>
        </mxCell>
        <mxCell id="NMdTjbtGDUU_QRpKEMsv-103" value="varchar(100)" style="shape=partialRectangle;html=1;whiteSpace=wrap;connectable=0;fillColor=none;top=0;left=0;bottom=0;right=0;align=center;spacingLeft=6;overflow=hidden;strokeColor=inherit;fontSize=16;" parent="NMdTjbtGDUU_QRpKEMsv-101" vertex="1">
          <mxGeometry x="119" width="121" height="30" as="geometry">
            <mxRectangle width="121" height="30" as="alternateBounds" />
          </mxGeometry>
        </mxCell>
        <mxCell id="NMdTjbtGDUU_QRpKEMsv-104" value="" style="shape=tableRow;horizontal=0;startSize=0;swimlaneHead=0;swimlaneBody=0;top=0;left=0;bottom=0;right=0;collapsible=0;dropTarget=0;fillColor=none;points=[[0,0.5],[1,0.5]];portConstraint=eastwest;strokeColor=inherit;fontSize=16;align=center;" parent="NMdTjbtGDUU_QRpKEMsv-97" vertex="1">
          <mxGeometry y="84" width="240" height="30" as="geometry" />
        </mxCell>
        <mxCell id="NMdTjbtGDUU_QRpKEMsv-105" value="release_data" style="shape=partialRectangle;html=1;whiteSpace=wrap;connectable=0;fillColor=none;top=0;left=0;bottom=0;right=0;overflow=hidden;strokeColor=inherit;fontSize=16;align=center;" parent="NMdTjbtGDUU_QRpKEMsv-104" vertex="1">
          <mxGeometry width="119" height="30" as="geometry">
            <mxRectangle width="119" height="30" as="alternateBounds" />
          </mxGeometry>
        </mxCell>
        <mxCell id="NMdTjbtGDUU_QRpKEMsv-106" value="date" style="shape=partialRectangle;html=1;whiteSpace=wrap;connectable=0;fillColor=none;top=0;left=0;bottom=0;right=0;align=center;spacingLeft=6;overflow=hidden;strokeColor=inherit;fontSize=16;" parent="NMdTjbtGDUU_QRpKEMsv-104" vertex="1">
          <mxGeometry x="119" width="121" height="30" as="geometry">
            <mxRectangle width="121" height="30" as="alternateBounds" />
          </mxGeometry>
        </mxCell>
        <mxCell id="NMdTjbtGDUU_QRpKEMsv-107" value="" style="shape=tableRow;horizontal=0;startSize=0;swimlaneHead=0;swimlaneBody=0;top=0;left=0;bottom=0;right=0;collapsible=0;dropTarget=0;fillColor=none;points=[[0,0.5],[1,0.5]];portConstraint=eastwest;strokeColor=inherit;fontSize=16;align=center;" parent="NMdTjbtGDUU_QRpKEMsv-97" vertex="1">
          <mxGeometry y="114" width="240" height="30" as="geometry" />
        </mxCell>
        <mxCell id="NMdTjbtGDUU_QRpKEMsv-108" value="overview" style="shape=partialRectangle;html=1;whiteSpace=wrap;connectable=0;fillColor=none;top=0;left=0;bottom=0;right=0;overflow=hidden;strokeColor=inherit;fontSize=16;align=center;" parent="NMdTjbtGDUU_QRpKEMsv-107" vertex="1">
          <mxGeometry width="119" height="30" as="geometry">
            <mxRectangle width="119" height="30" as="alternateBounds" />
          </mxGeometry>
        </mxCell>
        <mxCell id="NMdTjbtGDUU_QRpKEMsv-109" value="text" style="shape=partialRectangle;html=1;whiteSpace=wrap;connectable=0;fillColor=none;top=0;left=0;bottom=0;right=0;align=center;spacingLeft=6;overflow=hidden;strokeColor=inherit;fontSize=16;" parent="NMdTjbtGDUU_QRpKEMsv-107" vertex="1">
          <mxGeometry x="119" width="121" height="30" as="geometry">
            <mxRectangle width="121" height="30" as="alternateBounds" />
          </mxGeometry>
        </mxCell>
        <mxCell id="NMdTjbtGDUU_QRpKEMsv-110" value="" style="shape=tableRow;horizontal=0;startSize=0;swimlaneHead=0;swimlaneBody=0;top=0;left=0;bottom=0;right=0;collapsible=0;dropTarget=0;fillColor=none;points=[[0,0.5],[1,0.5]];portConstraint=eastwest;strokeColor=inherit;fontSize=16;align=center;" parent="NMdTjbtGDUU_QRpKEMsv-97" vertex="1">
          <mxGeometry y="144" width="240" height="30" as="geometry" />
        </mxCell>
        <mxCell id="NMdTjbtGDUU_QRpKEMsv-111" value="poster_path" style="shape=partialRectangle;html=1;whiteSpace=wrap;connectable=0;fillColor=none;top=0;left=0;bottom=0;right=0;overflow=hidden;strokeColor=inherit;fontSize=16;align=center;" parent="NMdTjbtGDUU_QRpKEMsv-110" vertex="1">
          <mxGeometry width="119" height="30" as="geometry">
            <mxRectangle width="119" height="30" as="alternateBounds" />
          </mxGeometry>
        </mxCell>
        <mxCell id="NMdTjbtGDUU_QRpKEMsv-112" value="text" style="shape=partialRectangle;html=1;whiteSpace=wrap;connectable=0;fillColor=none;top=0;left=0;bottom=0;right=0;align=center;spacingLeft=6;overflow=hidden;strokeColor=inherit;fontSize=16;" parent="NMdTjbtGDUU_QRpKEMsv-110" vertex="1">
          <mxGeometry x="119" width="121" height="30" as="geometry">
            <mxRectangle width="121" height="30" as="alternateBounds" />
          </mxGeometry>
        </mxCell>
        <mxCell id="NMdTjbtGDUU_QRpKEMsv-113" value="" style="shape=tableRow;horizontal=0;startSize=0;swimlaneHead=0;swimlaneBody=0;top=0;left=0;bottom=0;right=0;collapsible=0;dropTarget=0;fillColor=none;points=[[0,0.5],[1,0.5]];portConstraint=eastwest;strokeColor=inherit;fontSize=16;align=center;" parent="NMdTjbtGDUU_QRpKEMsv-97" vertex="1">
          <mxGeometry y="174" width="240" height="30" as="geometry" />
        </mxCell>
        <mxCell id="NMdTjbtGDUU_QRpKEMsv-114" value="vote_average" style="shape=partialRectangle;html=1;whiteSpace=wrap;connectable=0;fillColor=none;top=0;left=0;bottom=0;right=0;overflow=hidden;strokeColor=inherit;fontSize=16;align=center;" parent="NMdTjbtGDUU_QRpKEMsv-113" vertex="1">
          <mxGeometry width="119" height="30" as="geometry">
            <mxRectangle width="119" height="30" as="alternateBounds" />
          </mxGeometry>
        </mxCell>
        <mxCell id="NMdTjbtGDUU_QRpKEMsv-115" value="float" style="shape=partialRectangle;html=1;whiteSpace=wrap;connectable=0;fillColor=none;top=0;left=0;bottom=0;right=0;align=center;spacingLeft=6;overflow=hidden;strokeColor=inherit;fontSize=16;" parent="NMdTjbtGDUU_QRpKEMsv-113" vertex="1">
          <mxGeometry x="119" width="121" height="30" as="geometry">
            <mxRectangle width="121" height="30" as="alternateBounds" />
          </mxGeometry>
        </mxCell>
        <mxCell id="NMdTjbtGDUU_QRpKEMsv-116" value="" style="shape=tableRow;horizontal=0;startSize=0;swimlaneHead=0;swimlaneBody=0;top=0;left=0;bottom=0;right=0;collapsible=0;dropTarget=0;fillColor=none;points=[[0,0.5],[1,0.5]];portConstraint=eastwest;strokeColor=inherit;fontSize=16;align=center;" parent="NMdTjbtGDUU_QRpKEMsv-97" vertex="1">
          <mxGeometry y="204" width="240" height="30" as="geometry" />
        </mxCell>
        <mxCell id="NMdTjbtGDUU_QRpKEMsv-117" value="popularity" style="shape=partialRectangle;html=1;whiteSpace=wrap;connectable=0;fillColor=none;top=0;left=0;bottom=0;right=0;overflow=hidden;strokeColor=inherit;fontSize=16;align=center;" parent="NMdTjbtGDUU_QRpKEMsv-116" vertex="1">
          <mxGeometry width="119" height="30" as="geometry">
            <mxRectangle width="119" height="30" as="alternateBounds" />
          </mxGeometry>
        </mxCell>
        <mxCell id="NMdTjbtGDUU_QRpKEMsv-118" value="float" style="shape=partialRectangle;html=1;whiteSpace=wrap;connectable=0;fillColor=none;top=0;left=0;bottom=0;right=0;align=center;spacingLeft=6;overflow=hidden;strokeColor=inherit;fontSize=16;" parent="NMdTjbtGDUU_QRpKEMsv-116" vertex="1">
          <mxGeometry x="119" width="121" height="30" as="geometry">
            <mxRectangle width="121" height="30" as="alternateBounds" />
          </mxGeometry>
        </mxCell>
        <mxCell id="NMdTjbtGDUU_QRpKEMsv-119" value="" style="shape=tableRow;horizontal=0;startSize=0;swimlaneHead=0;swimlaneBody=0;top=0;left=0;bottom=0;right=0;collapsible=0;dropTarget=0;fillColor=none;points=[[0,0.5],[1,0.5]];portConstraint=eastwest;strokeColor=inherit;fontSize=16;align=center;" parent="NMdTjbtGDUU_QRpKEMsv-97" vertex="1">
          <mxGeometry y="234" width="240" height="30" as="geometry" />
        </mxCell>
        <mxCell id="NMdTjbtGDUU_QRpKEMsv-120" value="genres" style="shape=partialRectangle;html=1;whiteSpace=wrap;connectable=0;fillColor=none;top=0;left=0;bottom=0;right=0;overflow=hidden;strokeColor=inherit;fontSize=16;align=center;" parent="NMdTjbtGDUU_QRpKEMsv-119" vertex="1">
          <mxGeometry width="119" height="30" as="geometry">
            <mxRectangle width="119" height="30" as="alternateBounds" />
          </mxGeometry>
        </mxCell>
        <mxCell id="NMdTjbtGDUU_QRpKEMsv-121" value="varchar" style="shape=partialRectangle;html=1;whiteSpace=wrap;connectable=0;fillColor=none;top=0;left=0;bottom=0;right=0;align=center;spacingLeft=6;overflow=hidden;strokeColor=inherit;fontSize=16;" parent="NMdTjbtGDUU_QRpKEMsv-119" vertex="1">
          <mxGeometry x="119" width="121" height="30" as="geometry">
            <mxRectangle width="121" height="30" as="alternateBounds" />
          </mxGeometry>
        </mxCell>
        <mxCell id="NMdTjbtGDUU_QRpKEMsv-122" value="" style="shape=tableRow;horizontal=0;startSize=0;swimlaneHead=0;swimlaneBody=0;top=0;left=0;bottom=0;right=0;collapsible=0;dropTarget=0;fillColor=none;points=[[0,0.5],[1,0.5]];portConstraint=eastwest;strokeColor=inherit;fontSize=16;align=center;" parent="NMdTjbtGDUU_QRpKEMsv-97" vertex="1">
          <mxGeometry y="264" width="240" height="26" as="geometry" />
        </mxCell>
        <mxCell id="NMdTjbtGDUU_QRpKEMsv-123" value="youtube_key" style="shape=partialRectangle;html=1;whiteSpace=wrap;connectable=0;fillColor=none;top=0;left=0;bottom=0;right=0;overflow=hidden;strokeColor=inherit;fontSize=16;align=center;" parent="NMdTjbtGDUU_QRpKEMsv-122" vertex="1">
          <mxGeometry width="119" height="26" as="geometry">
            <mxRectangle width="119" height="26" as="alternateBounds" />
          </mxGeometry>
        </mxCell>
        <mxCell id="NMdTjbtGDUU_QRpKEMsv-124" value="varchar" style="shape=partialRectangle;html=1;whiteSpace=wrap;connectable=0;fillColor=none;top=0;left=0;bottom=0;right=0;align=center;spacingLeft=6;overflow=hidden;strokeColor=inherit;fontSize=16;" parent="NMdTjbtGDUU_QRpKEMsv-122" vertex="1">
          <mxGeometry x="119" width="121" height="26" as="geometry">
            <mxRectangle width="121" height="26" as="alternateBounds" />
          </mxGeometry>
        </mxCell>
        <mxCell id="NMdTjbtGDUU_QRpKEMsv-128" value="" style="line;strokeWidth=1;html=1;perimeter=backbonePerimeter;points=[];outlineConnect=0;align=center;" parent="1" vertex="1">
          <mxGeometry x="450" y="240" width="240" height="10" as="geometry" />
        </mxCell>
        <mxCell id="NMdTjbtGDUU_QRpKEMsv-129" value="movies_movie_like" style="shape=table;startSize=30;container=1;collapsible=0;childLayout=tableLayout;fixedRows=1;rowLines=0;fontStyle=0;strokeColor=default;fontSize=16;rounded=1;align=center;shadow=0;fillColor=#E6D0DE;" parent="1" vertex="1">
          <mxGeometry x="60" y="50" width="242" height="114" as="geometry" />
        </mxCell>
        <mxCell id="NMdTjbtGDUU_QRpKEMsv-130" value="" style="shape=tableRow;horizontal=0;startSize=0;swimlaneHead=0;swimlaneBody=0;top=0;left=0;bottom=0;right=0;collapsible=0;dropTarget=0;fillColor=none;points=[[0,0.5],[1,0.5]];portConstraint=eastwest;strokeColor=inherit;fontSize=16;align=center;" parent="NMdTjbtGDUU_QRpKEMsv-129" vertex="1">
          <mxGeometry y="30" width="242" height="24" as="geometry" />
        </mxCell>
        <mxCell id="NMdTjbtGDUU_QRpKEMsv-131" value="id" style="shape=partialRectangle;html=1;whiteSpace=wrap;connectable=0;fillColor=none;top=0;left=0;bottom=0;right=0;overflow=hidden;pointerEvents=1;strokeColor=inherit;fontSize=16;align=center;" parent="NMdTjbtGDUU_QRpKEMsv-130" vertex="1">
          <mxGeometry width="120" height="24" as="geometry">
            <mxRectangle width="120" height="24" as="alternateBounds" />
          </mxGeometry>
        </mxCell>
        <mxCell id="NMdTjbtGDUU_QRpKEMsv-132" value="integer" style="shape=partialRectangle;html=1;whiteSpace=wrap;connectable=0;fillColor=none;top=0;left=0;bottom=0;right=0;align=center;spacingLeft=6;overflow=hidden;strokeColor=inherit;fontSize=16;" parent="NMdTjbtGDUU_QRpKEMsv-130" vertex="1">
          <mxGeometry x="120" width="122" height="24" as="geometry">
            <mxRectangle width="122" height="24" as="alternateBounds" />
          </mxGeometry>
        </mxCell>
        <mxCell id="NMdTjbtGDUU_QRpKEMsv-133" value="" style="shape=tableRow;horizontal=0;startSize=0;swimlaneHead=0;swimlaneBody=0;top=0;left=0;bottom=0;right=0;collapsible=0;dropTarget=0;fillColor=none;points=[[0,0.5],[1,0.5]];portConstraint=eastwest;strokeColor=inherit;fontSize=16;align=center;" parent="NMdTjbtGDUU_QRpKEMsv-129" vertex="1">
          <mxGeometry y="54" width="242" height="30" as="geometry" />
        </mxCell>
        <mxCell id="NMdTjbtGDUU_QRpKEMsv-134" value="movie_id" style="shape=partialRectangle;html=1;whiteSpace=wrap;connectable=0;fillColor=none;top=0;left=0;bottom=0;right=0;overflow=hidden;strokeColor=inherit;fontSize=16;align=center;" parent="NMdTjbtGDUU_QRpKEMsv-133" vertex="1">
          <mxGeometry width="120" height="30" as="geometry">
            <mxRectangle width="120" height="30" as="alternateBounds" />
          </mxGeometry>
        </mxCell>
        <mxCell id="NMdTjbtGDUU_QRpKEMsv-135" value="integer" style="shape=partialRectangle;html=1;whiteSpace=wrap;connectable=0;fillColor=none;top=0;left=0;bottom=0;right=0;align=center;spacingLeft=6;overflow=hidden;strokeColor=inherit;fontSize=16;" parent="NMdTjbtGDUU_QRpKEMsv-133" vertex="1">
          <mxGeometry x="120" width="122" height="30" as="geometry">
            <mxRectangle width="122" height="30" as="alternateBounds" />
          </mxGeometry>
        </mxCell>
        <mxCell id="NMdTjbtGDUU_QRpKEMsv-136" value="" style="shape=tableRow;horizontal=0;startSize=0;swimlaneHead=0;swimlaneBody=0;top=0;left=0;bottom=0;right=0;collapsible=0;dropTarget=0;fillColor=none;points=[[0,0.5],[1,0.5]];portConstraint=eastwest;strokeColor=inherit;fontSize=16;align=center;" parent="NMdTjbtGDUU_QRpKEMsv-129" vertex="1">
          <mxGeometry y="84" width="242" height="30" as="geometry" />
        </mxCell>
        <mxCell id="NMdTjbtGDUU_QRpKEMsv-137" value="user_id" style="shape=partialRectangle;html=1;whiteSpace=wrap;connectable=0;fillColor=none;top=0;left=0;bottom=0;right=0;overflow=hidden;strokeColor=inherit;fontSize=16;align=center;" parent="NMdTjbtGDUU_QRpKEMsv-136" vertex="1">
          <mxGeometry width="120" height="30" as="geometry">
            <mxRectangle width="120" height="30" as="alternateBounds" />
          </mxGeometry>
        </mxCell>
        <mxCell id="NMdTjbtGDUU_QRpKEMsv-138" value="integer" style="shape=partialRectangle;html=1;whiteSpace=wrap;connectable=0;fillColor=none;top=0;left=0;bottom=0;right=0;align=center;spacingLeft=6;overflow=hidden;strokeColor=inherit;fontSize=16;" parent="NMdTjbtGDUU_QRpKEMsv-136" vertex="1">
          <mxGeometry x="120" width="122" height="30" as="geometry">
            <mxRectangle width="122" height="30" as="alternateBounds" />
          </mxGeometry>
        </mxCell>
        <mxCell id="NMdTjbtGDUU_QRpKEMsv-157" value="" style="line;strokeWidth=1;html=1;perimeter=backbonePerimeter;points=[];outlineConnect=0;align=center;shadow=0;fillColor=#E6D0DE;" parent="1" vertex="1">
          <mxGeometry x="60" y="100" width="243" height="10" as="geometry" />
        </mxCell>
        <mxCell id="NMdTjbtGDUU_QRpKEMsv-158" value="movies_movie_review" style="shape=table;startSize=30;container=1;collapsible=0;childLayout=tableLayout;fixedRows=1;rowLines=0;fontStyle=0;strokeColor=default;fontSize=16;rounded=1;align=center;fillColor=#E6D0DE;" parent="1" vertex="1">
          <mxGeometry x="70" y="-320" width="242" height="174" as="geometry" />
        </mxCell>
        <mxCell id="NMdTjbtGDUU_QRpKEMsv-159" value="" style="shape=tableRow;horizontal=0;startSize=0;swimlaneHead=0;swimlaneBody=0;top=0;left=0;bottom=0;right=0;collapsible=0;dropTarget=0;fillColor=none;points=[[0,0.5],[1,0.5]];portConstraint=eastwest;strokeColor=inherit;fontSize=16;align=center;" parent="NMdTjbtGDUU_QRpKEMsv-158" vertex="1">
          <mxGeometry y="30" width="242" height="24" as="geometry" />
        </mxCell>
        <mxCell id="NMdTjbtGDUU_QRpKEMsv-160" value="id" style="shape=partialRectangle;html=1;whiteSpace=wrap;connectable=0;fillColor=none;top=0;left=0;bottom=0;right=0;overflow=hidden;pointerEvents=1;strokeColor=inherit;fontSize=16;align=center;" parent="NMdTjbtGDUU_QRpKEMsv-159" vertex="1">
          <mxGeometry width="119" height="24" as="geometry">
            <mxRectangle width="119" height="24" as="alternateBounds" />
          </mxGeometry>
        </mxCell>
        <mxCell id="NMdTjbtGDUU_QRpKEMsv-161" value="integer" style="shape=partialRectangle;html=1;whiteSpace=wrap;connectable=0;fillColor=none;top=0;left=0;bottom=0;right=0;align=center;spacingLeft=6;overflow=hidden;strokeColor=inherit;fontSize=16;" parent="NMdTjbtGDUU_QRpKEMsv-159" vertex="1">
          <mxGeometry x="119" width="123" height="24" as="geometry">
            <mxRectangle width="123" height="24" as="alternateBounds" />
          </mxGeometry>
        </mxCell>
        <mxCell id="NMdTjbtGDUU_QRpKEMsv-168" value="" style="shape=tableRow;horizontal=0;startSize=0;swimlaneHead=0;swimlaneBody=0;top=0;left=0;bottom=0;right=0;collapsible=0;dropTarget=0;fillColor=none;points=[[0,0.5],[1,0.5]];portConstraint=eastwest;strokeColor=inherit;fontSize=16;align=center;" parent="NMdTjbtGDUU_QRpKEMsv-158" vertex="1">
          <mxGeometry y="54" width="242" height="30" as="geometry" />
        </mxCell>
        <mxCell id="NMdTjbtGDUU_QRpKEMsv-169" value="content" style="shape=partialRectangle;html=1;whiteSpace=wrap;connectable=0;fillColor=none;top=0;left=0;bottom=0;right=0;overflow=hidden;strokeColor=inherit;fontSize=16;align=center;" parent="NMdTjbtGDUU_QRpKEMsv-168" vertex="1">
          <mxGeometry width="119" height="30" as="geometry">
            <mxRectangle width="119" height="30" as="alternateBounds" />
          </mxGeometry>
        </mxCell>
        <mxCell id="NMdTjbtGDUU_QRpKEMsv-170" value="varchar(100)" style="shape=partialRectangle;html=1;whiteSpace=wrap;connectable=0;fillColor=none;top=0;left=0;bottom=0;right=0;align=center;spacingLeft=6;overflow=hidden;strokeColor=inherit;fontSize=16;" parent="NMdTjbtGDUU_QRpKEMsv-168" vertex="1">
          <mxGeometry x="119" width="123" height="30" as="geometry">
            <mxRectangle width="123" height="30" as="alternateBounds" />
          </mxGeometry>
        </mxCell>
        <mxCell id="NMdTjbtGDUU_QRpKEMsv-171" value="" style="shape=tableRow;horizontal=0;startSize=0;swimlaneHead=0;swimlaneBody=0;top=0;left=0;bottom=0;right=0;collapsible=0;dropTarget=0;fillColor=none;points=[[0,0.5],[1,0.5]];portConstraint=eastwest;strokeColor=inherit;fontSize=16;align=center;" parent="NMdTjbtGDUU_QRpKEMsv-158" vertex="1">
          <mxGeometry y="84" width="242" height="30" as="geometry" />
        </mxCell>
        <mxCell id="NMdTjbtGDUU_QRpKEMsv-172" value="created_at" style="shape=partialRectangle;html=1;whiteSpace=wrap;connectable=0;fillColor=none;top=0;left=0;bottom=0;right=0;overflow=hidden;strokeColor=inherit;fontSize=16;align=center;" parent="NMdTjbtGDUU_QRpKEMsv-171" vertex="1">
          <mxGeometry width="119" height="30" as="geometry">
            <mxRectangle width="119" height="30" as="alternateBounds" />
          </mxGeometry>
        </mxCell>
        <mxCell id="NMdTjbtGDUU_QRpKEMsv-173" value="datetime" style="shape=partialRectangle;html=1;whiteSpace=wrap;connectable=0;fillColor=none;top=0;left=0;bottom=0;right=0;align=center;spacingLeft=6;overflow=hidden;strokeColor=inherit;fontSize=16;" parent="NMdTjbtGDUU_QRpKEMsv-171" vertex="1">
          <mxGeometry x="119" width="123" height="30" as="geometry">
            <mxRectangle width="123" height="30" as="alternateBounds" />
          </mxGeometry>
        </mxCell>
        <mxCell id="NMdTjbtGDUU_QRpKEMsv-162" value="" style="shape=tableRow;horizontal=0;startSize=0;swimlaneHead=0;swimlaneBody=0;top=0;left=0;bottom=0;right=0;collapsible=0;dropTarget=0;fillColor=none;points=[[0,0.5],[1,0.5]];portConstraint=eastwest;strokeColor=inherit;fontSize=16;align=center;" parent="NMdTjbtGDUU_QRpKEMsv-158" vertex="1">
          <mxGeometry y="114" width="242" height="30" as="geometry" />
        </mxCell>
        <mxCell id="NMdTjbtGDUU_QRpKEMsv-163" value="user_id" style="shape=partialRectangle;html=1;whiteSpace=wrap;connectable=0;fillColor=none;top=0;left=0;bottom=0;right=0;overflow=hidden;strokeColor=inherit;fontSize=16;align=center;" parent="NMdTjbtGDUU_QRpKEMsv-162" vertex="1">
          <mxGeometry width="119" height="30" as="geometry">
            <mxRectangle width="119" height="30" as="alternateBounds" />
          </mxGeometry>
        </mxCell>
        <mxCell id="NMdTjbtGDUU_QRpKEMsv-164" value="integer" style="shape=partialRectangle;html=1;whiteSpace=wrap;connectable=0;fillColor=none;top=0;left=0;bottom=0;right=0;align=center;spacingLeft=6;overflow=hidden;strokeColor=inherit;fontSize=16;" parent="NMdTjbtGDUU_QRpKEMsv-162" vertex="1">
          <mxGeometry x="119" width="123" height="30" as="geometry">
            <mxRectangle width="123" height="30" as="alternateBounds" />
          </mxGeometry>
        </mxCell>
        <mxCell id="NMdTjbtGDUU_QRpKEMsv-165" value="" style="shape=tableRow;horizontal=0;startSize=0;swimlaneHead=0;swimlaneBody=0;top=0;left=0;bottom=0;right=0;collapsible=0;dropTarget=0;fillColor=none;points=[[0,0.5],[1,0.5]];portConstraint=eastwest;strokeColor=inherit;fontSize=16;align=center;" parent="NMdTjbtGDUU_QRpKEMsv-158" vertex="1">
          <mxGeometry y="144" width="242" height="30" as="geometry" />
        </mxCell>
        <mxCell id="NMdTjbtGDUU_QRpKEMsv-166" value="movie_id" style="shape=partialRectangle;html=1;whiteSpace=wrap;connectable=0;fillColor=none;top=0;left=0;bottom=0;right=0;overflow=hidden;strokeColor=inherit;fontSize=16;align=center;" parent="NMdTjbtGDUU_QRpKEMsv-165" vertex="1">
          <mxGeometry width="119" height="30" as="geometry">
            <mxRectangle width="119" height="30" as="alternateBounds" />
          </mxGeometry>
        </mxCell>
        <mxCell id="NMdTjbtGDUU_QRpKEMsv-167" value="integer" style="shape=partialRectangle;html=1;whiteSpace=wrap;connectable=0;fillColor=none;top=0;left=0;bottom=0;right=0;align=center;spacingLeft=6;overflow=hidden;strokeColor=inherit;fontSize=16;" parent="NMdTjbtGDUU_QRpKEMsv-165" vertex="1">
          <mxGeometry x="119" width="123" height="30" as="geometry">
            <mxRectangle width="123" height="30" as="alternateBounds" />
          </mxGeometry>
        </mxCell>
        <mxCell id="NMdTjbtGDUU_QRpKEMsv-186" value="" style="line;strokeWidth=1;html=1;perimeter=backbonePerimeter;points=[];outlineConnect=0;align=center;" parent="1" vertex="1">
          <mxGeometry x="70" y="-270" width="243" height="10" as="geometry" />
        </mxCell>
        <mxCell id="NMdTjbtGDUU_QRpKEMsv-217" value="accounts_user" style="shape=table;startSize=30;container=1;collapsible=0;childLayout=tableLayout;fixedRows=1;rowLines=0;fontStyle=0;strokeColor=default;fontSize=16;rounded=1;align=center;fillColor=#FFFF99;" parent="1" vertex="1">
          <mxGeometry x="847.57" y="-520" width="270.00000000000045" height="277" as="geometry" />
        </mxCell>
        <mxCell id="NMdTjbtGDUU_QRpKEMsv-218" value="" style="shape=tableRow;horizontal=0;startSize=0;swimlaneHead=0;swimlaneBody=0;top=0;left=0;bottom=0;right=0;collapsible=0;dropTarget=0;fillColor=none;points=[[0,0.5],[1,0.5]];portConstraint=eastwest;strokeColor=inherit;fontSize=16;align=center;" parent="NMdTjbtGDUU_QRpKEMsv-217" vertex="1">
          <mxGeometry y="30" width="270.00000000000045" height="20" as="geometry" />
        </mxCell>
        <mxCell id="NMdTjbtGDUU_QRpKEMsv-219" value="id" style="shape=partialRectangle;html=1;whiteSpace=wrap;connectable=0;fillColor=none;top=0;left=0;bottom=0;right=0;overflow=hidden;pointerEvents=1;strokeColor=inherit;fontSize=16;align=center;" parent="NMdTjbtGDUU_QRpKEMsv-218" vertex="1">
          <mxGeometry width="130" height="20" as="geometry">
            <mxRectangle width="130" height="20" as="alternateBounds" />
          </mxGeometry>
        </mxCell>
        <mxCell id="NMdTjbtGDUU_QRpKEMsv-220" value="integer" style="shape=partialRectangle;html=1;whiteSpace=wrap;connectable=0;fillColor=none;top=0;left=0;bottom=0;right=0;align=center;spacingLeft=6;overflow=hidden;strokeColor=inherit;fontSize=16;" parent="NMdTjbtGDUU_QRpKEMsv-218" vertex="1">
          <mxGeometry x="130" width="140" height="20" as="geometry">
            <mxRectangle width="140" height="20" as="alternateBounds" />
          </mxGeometry>
        </mxCell>
        <mxCell id="NMdTjbtGDUU_QRpKEMsv-221" value="" style="shape=tableRow;horizontal=0;startSize=0;swimlaneHead=0;swimlaneBody=0;top=0;left=0;bottom=0;right=0;collapsible=0;dropTarget=0;fillColor=none;points=[[0,0.5],[1,0.5]];portConstraint=eastwest;strokeColor=inherit;fontSize=16;align=center;" parent="NMdTjbtGDUU_QRpKEMsv-217" vertex="1">
          <mxGeometry y="50" width="270.00000000000045" height="26" as="geometry" />
        </mxCell>
        <mxCell id="NMdTjbtGDUU_QRpKEMsv-222" value="username" style="shape=partialRectangle;html=1;whiteSpace=wrap;connectable=0;fillColor=none;top=0;left=0;bottom=0;right=0;overflow=hidden;strokeColor=inherit;fontSize=16;align=center;" parent="NMdTjbtGDUU_QRpKEMsv-221" vertex="1">
          <mxGeometry width="130" height="26" as="geometry">
            <mxRectangle width="130" height="26" as="alternateBounds" />
          </mxGeometry>
        </mxCell>
        <mxCell id="NMdTjbtGDUU_QRpKEMsv-223" value="varchar" style="shape=partialRectangle;html=1;whiteSpace=wrap;connectable=0;fillColor=none;top=0;left=0;bottom=0;right=0;align=center;spacingLeft=6;overflow=hidden;strokeColor=inherit;fontSize=16;" parent="NMdTjbtGDUU_QRpKEMsv-221" vertex="1">
          <mxGeometry x="130" width="140" height="26" as="geometry">
            <mxRectangle width="140" height="26" as="alternateBounds" />
          </mxGeometry>
        </mxCell>
        <mxCell id="NMdTjbtGDUU_QRpKEMsv-224" value="" style="shape=tableRow;horizontal=0;startSize=0;swimlaneHead=0;swimlaneBody=0;top=0;left=0;bottom=0;right=0;collapsible=0;dropTarget=0;fillColor=none;points=[[0,0.5],[1,0.5]];portConstraint=eastwest;strokeColor=inherit;fontSize=16;align=center;" parent="NMdTjbtGDUU_QRpKEMsv-217" vertex="1">
          <mxGeometry y="76" width="270.00000000000045" height="30" as="geometry" />
        </mxCell>
        <mxCell id="NMdTjbtGDUU_QRpKEMsv-225" value="password" style="shape=partialRectangle;html=1;whiteSpace=wrap;connectable=0;fillColor=none;top=0;left=0;bottom=0;right=0;overflow=hidden;strokeColor=inherit;fontSize=16;align=center;" parent="NMdTjbtGDUU_QRpKEMsv-224" vertex="1">
          <mxGeometry width="130" height="30" as="geometry">
            <mxRectangle width="130" height="30" as="alternateBounds" />
          </mxGeometry>
        </mxCell>
        <mxCell id="NMdTjbtGDUU_QRpKEMsv-226" value="varchar" style="shape=partialRectangle;html=1;whiteSpace=wrap;connectable=0;fillColor=none;top=0;left=0;bottom=0;right=0;align=center;spacingLeft=6;overflow=hidden;strokeColor=inherit;fontSize=16;" parent="NMdTjbtGDUU_QRpKEMsv-224" vertex="1">
          <mxGeometry x="130" width="140" height="30" as="geometry">
            <mxRectangle width="140" height="30" as="alternateBounds" />
          </mxGeometry>
        </mxCell>
        <mxCell id="NMdTjbtGDUU_QRpKEMsv-227" value="" style="shape=tableRow;horizontal=0;startSize=0;swimlaneHead=0;swimlaneBody=0;top=0;left=0;bottom=0;right=0;collapsible=0;dropTarget=0;fillColor=none;points=[[0,0.5],[1,0.5]];portConstraint=eastwest;strokeColor=inherit;fontSize=16;align=center;" parent="NMdTjbtGDUU_QRpKEMsv-217" vertex="1">
          <mxGeometry y="106" width="270.00000000000045" height="30" as="geometry" />
        </mxCell>
        <mxCell id="NMdTjbtGDUU_QRpKEMsv-228" value="email" style="shape=partialRectangle;html=1;whiteSpace=wrap;connectable=0;fillColor=none;top=0;left=0;bottom=0;right=0;overflow=hidden;strokeColor=inherit;fontSize=16;align=center;" parent="NMdTjbtGDUU_QRpKEMsv-227" vertex="1">
          <mxGeometry width="130" height="30" as="geometry">
            <mxRectangle width="130" height="30" as="alternateBounds" />
          </mxGeometry>
        </mxCell>
        <mxCell id="NMdTjbtGDUU_QRpKEMsv-229" value="varchar" style="shape=partialRectangle;html=1;whiteSpace=wrap;connectable=0;fillColor=none;top=0;left=0;bottom=0;right=0;align=center;spacingLeft=6;overflow=hidden;strokeColor=inherit;fontSize=16;" parent="NMdTjbtGDUU_QRpKEMsv-227" vertex="1">
          <mxGeometry x="130" width="140" height="30" as="geometry">
            <mxRectangle width="140" height="30" as="alternateBounds" />
          </mxGeometry>
        </mxCell>
        <mxCell id="NMdTjbtGDUU_QRpKEMsv-230" value="" style="shape=tableRow;horizontal=0;startSize=0;swimlaneHead=0;swimlaneBody=0;top=0;left=0;bottom=0;right=0;collapsible=0;dropTarget=0;fillColor=none;points=[[0,0.5],[1,0.5]];portConstraint=eastwest;strokeColor=inherit;fontSize=16;align=center;" parent="NMdTjbtGDUU_QRpKEMsv-217" vertex="1">
          <mxGeometry y="136" width="270.00000000000045" height="36" as="geometry" />
        </mxCell>
        <mxCell id="NMdTjbtGDUU_QRpKEMsv-231" value="nickname" style="shape=partialRectangle;html=1;whiteSpace=wrap;connectable=0;fillColor=none;top=0;left=0;bottom=0;right=0;overflow=hidden;strokeColor=inherit;fontSize=16;align=center;" parent="NMdTjbtGDUU_QRpKEMsv-230" vertex="1">
          <mxGeometry width="130" height="36" as="geometry">
            <mxRectangle width="130" height="36" as="alternateBounds" />
          </mxGeometry>
        </mxCell>
        <mxCell id="NMdTjbtGDUU_QRpKEMsv-232" value="varchar(30)" style="shape=partialRectangle;html=1;whiteSpace=wrap;connectable=0;fillColor=none;top=0;left=0;bottom=0;right=0;align=center;spacingLeft=6;overflow=hidden;strokeColor=inherit;fontSize=16;" parent="NMdTjbtGDUU_QRpKEMsv-230" vertex="1">
          <mxGeometry x="130" width="140" height="36" as="geometry">
            <mxRectangle width="140" height="36" as="alternateBounds" />
          </mxGeometry>
        </mxCell>
        <mxCell id="NMdTjbtGDUU_QRpKEMsv-233" value="" style="shape=tableRow;horizontal=0;startSize=0;swimlaneHead=0;swimlaneBody=0;top=0;left=0;bottom=0;right=0;collapsible=0;dropTarget=0;fillColor=none;points=[[0,0.5],[1,0.5]];portConstraint=eastwest;strokeColor=inherit;fontSize=16;align=center;" parent="NMdTjbtGDUU_QRpKEMsv-217" vertex="1">
          <mxGeometry y="172" width="270.00000000000045" height="41" as="geometry" />
        </mxCell>
        <mxCell id="NMdTjbtGDUU_QRpKEMsv-234" value="introduce" style="shape=partialRectangle;html=1;whiteSpace=wrap;connectable=0;fillColor=none;top=0;left=0;bottom=0;right=0;overflow=hidden;strokeColor=inherit;fontSize=16;align=center;" parent="NMdTjbtGDUU_QRpKEMsv-233" vertex="1">
          <mxGeometry width="130" height="41" as="geometry">
            <mxRectangle width="130" height="41" as="alternateBounds" />
          </mxGeometry>
        </mxCell>
        <mxCell id="NMdTjbtGDUU_QRpKEMsv-235" value="varchar(100)" style="shape=partialRectangle;html=1;whiteSpace=wrap;connectable=0;fillColor=none;top=0;left=0;bottom=0;right=0;align=center;spacingLeft=6;overflow=hidden;strokeColor=inherit;fontSize=16;" parent="NMdTjbtGDUU_QRpKEMsv-233" vertex="1">
          <mxGeometry x="130" width="140" height="41" as="geometry">
            <mxRectangle width="140" height="41" as="alternateBounds" />
          </mxGeometry>
        </mxCell>
        <mxCell id="NMdTjbtGDUU_QRpKEMsv-236" value="" style="shape=tableRow;horizontal=0;startSize=0;swimlaneHead=0;swimlaneBody=0;top=0;left=0;bottom=0;right=0;collapsible=0;dropTarget=0;fillColor=none;points=[[0,0.5],[1,0.5]];portConstraint=eastwest;strokeColor=inherit;fontSize=16;align=center;" parent="NMdTjbtGDUU_QRpKEMsv-217" vertex="1">
          <mxGeometry y="213" width="270.00000000000045" height="30" as="geometry" />
        </mxCell>
        <mxCell id="NMdTjbtGDUU_QRpKEMsv-237" value="followings" style="shape=partialRectangle;html=1;whiteSpace=wrap;connectable=0;fillColor=none;top=0;left=0;bottom=0;right=0;overflow=hidden;strokeColor=inherit;fontSize=16;align=center;" parent="NMdTjbtGDUU_QRpKEMsv-236" vertex="1">
          <mxGeometry width="130" height="30" as="geometry">
            <mxRectangle width="130" height="30" as="alternateBounds" />
          </mxGeometry>
        </mxCell>
        <mxCell id="NMdTjbtGDUU_QRpKEMsv-238" value="integer" style="shape=partialRectangle;html=1;whiteSpace=wrap;connectable=0;fillColor=none;top=0;left=0;bottom=0;right=0;align=center;spacingLeft=6;overflow=hidden;strokeColor=inherit;fontSize=16;" parent="NMdTjbtGDUU_QRpKEMsv-236" vertex="1">
          <mxGeometry x="130" width="140" height="30" as="geometry">
            <mxRectangle width="140" height="30" as="alternateBounds" />
          </mxGeometry>
        </mxCell>
        <mxCell id="NMdTjbtGDUU_QRpKEMsv-239" value="" style="shape=tableRow;horizontal=0;startSize=0;swimlaneHead=0;swimlaneBody=0;top=0;left=0;bottom=0;right=0;collapsible=0;dropTarget=0;fillColor=none;points=[[0,0.5],[1,0.5]];portConstraint=eastwest;strokeColor=inherit;fontSize=16;align=center;" parent="NMdTjbtGDUU_QRpKEMsv-217" vertex="1">
          <mxGeometry y="243" width="270.00000000000045" height="34" as="geometry" />
        </mxCell>
        <mxCell id="NMdTjbtGDUU_QRpKEMsv-240" value="playlist_names" style="shape=partialRectangle;html=1;whiteSpace=wrap;connectable=0;fillColor=none;top=0;left=0;bottom=0;right=0;overflow=hidden;strokeColor=inherit;fontSize=16;align=center;" parent="NMdTjbtGDUU_QRpKEMsv-239" vertex="1">
          <mxGeometry width="130" height="34" as="geometry">
            <mxRectangle width="130" height="34" as="alternateBounds" />
          </mxGeometry>
        </mxCell>
        <mxCell id="NMdTjbtGDUU_QRpKEMsv-241" value="varchar" style="shape=partialRectangle;html=1;whiteSpace=wrap;connectable=0;fillColor=none;top=0;left=0;bottom=0;right=0;align=center;spacingLeft=6;overflow=hidden;strokeColor=inherit;fontSize=16;" parent="NMdTjbtGDUU_QRpKEMsv-239" vertex="1">
          <mxGeometry x="130" width="140" height="34" as="geometry">
            <mxRectangle width="140" height="34" as="alternateBounds" />
          </mxGeometry>
        </mxCell>
        <mxCell id="1eCSTTwg-2aaGd2EnfkB-38" value="" style="line;strokeWidth=1;html=1;perimeter=backbonePerimeter;points=[];outlineConnect=0;align=center;" parent="1" vertex="1">
          <mxGeometry x="847.57" y="308" width="270" height="10" as="geometry" />
        </mxCell>
        <mxCell id="1eCSTTwg-2aaGd2EnfkB-70" value="" style="line;strokeWidth=1;html=1;perimeter=backbonePerimeter;points=[];outlineConnect=0;align=center;" parent="1" vertex="1">
          <mxGeometry x="847.57" y="50" width="270" height="10" as="geometry" />
        </mxCell>
        <mxCell id="1eCSTTwg-2aaGd2EnfkB-71" value="accounts_user_followers" style="shape=table;startSize=30;container=1;collapsible=0;childLayout=tableLayout;fixedRows=1;rowLines=0;fontStyle=0;strokeColor=default;fontSize=16;rounded=1;align=center;fillColor=#FFFF99;" parent="1" vertex="1">
          <mxGeometry x="1200" y="-420" width="230" height="134" as="geometry" />
        </mxCell>
        <mxCell id="1eCSTTwg-2aaGd2EnfkB-72" value="" style="shape=tableRow;horizontal=0;startSize=0;swimlaneHead=0;swimlaneBody=0;top=0;left=0;bottom=0;right=0;collapsible=0;dropTarget=0;fillColor=none;points=[[0,0.5],[1,0.5]];portConstraint=eastwest;strokeColor=inherit;fontSize=16;align=center;" parent="1eCSTTwg-2aaGd2EnfkB-71" vertex="1">
          <mxGeometry y="30" width="230" height="20" as="geometry" />
        </mxCell>
        <mxCell id="1eCSTTwg-2aaGd2EnfkB-73" value="id" style="shape=partialRectangle;html=1;whiteSpace=wrap;connectable=0;fillColor=none;top=0;left=0;bottom=0;right=0;overflow=hidden;pointerEvents=1;strokeColor=inherit;fontSize=16;align=center;" parent="1eCSTTwg-2aaGd2EnfkB-72" vertex="1">
          <mxGeometry width="111" height="20" as="geometry">
            <mxRectangle width="111" height="20" as="alternateBounds" />
          </mxGeometry>
        </mxCell>
        <mxCell id="1eCSTTwg-2aaGd2EnfkB-74" value="integer" style="shape=partialRectangle;html=1;whiteSpace=wrap;connectable=0;fillColor=none;top=0;left=0;bottom=0;right=0;align=center;spacingLeft=6;overflow=hidden;strokeColor=inherit;fontSize=16;" parent="1eCSTTwg-2aaGd2EnfkB-72" vertex="1">
          <mxGeometry x="111" width="119" height="20" as="geometry">
            <mxRectangle width="119" height="20" as="alternateBounds" />
          </mxGeometry>
        </mxCell>
        <mxCell id="1eCSTTwg-2aaGd2EnfkB-75" value="" style="shape=tableRow;horizontal=0;startSize=0;swimlaneHead=0;swimlaneBody=0;top=0;left=0;bottom=0;right=0;collapsible=0;dropTarget=0;fillColor=none;points=[[0,0.5],[1,0.5]];portConstraint=eastwest;strokeColor=inherit;fontSize=16;align=center;" parent="1eCSTTwg-2aaGd2EnfkB-71" vertex="1">
          <mxGeometry y="50" width="230" height="40" as="geometry" />
        </mxCell>
        <mxCell id="1eCSTTwg-2aaGd2EnfkB-76" value="from_user_id" style="shape=partialRectangle;html=1;whiteSpace=wrap;connectable=0;fillColor=none;top=0;left=0;bottom=0;right=0;overflow=hidden;strokeColor=inherit;fontSize=16;align=center;" parent="1eCSTTwg-2aaGd2EnfkB-75" vertex="1">
          <mxGeometry width="111" height="40" as="geometry">
            <mxRectangle width="111" height="40" as="alternateBounds" />
          </mxGeometry>
        </mxCell>
        <mxCell id="1eCSTTwg-2aaGd2EnfkB-77" value="integer" style="shape=partialRectangle;html=1;whiteSpace=wrap;connectable=0;fillColor=none;top=0;left=0;bottom=0;right=0;align=center;spacingLeft=6;overflow=hidden;strokeColor=inherit;fontSize=16;" parent="1eCSTTwg-2aaGd2EnfkB-75" vertex="1">
          <mxGeometry x="111" width="119" height="40" as="geometry">
            <mxRectangle width="119" height="40" as="alternateBounds" />
          </mxGeometry>
        </mxCell>
        <mxCell id="1eCSTTwg-2aaGd2EnfkB-78" value="" style="shape=tableRow;horizontal=0;startSize=0;swimlaneHead=0;swimlaneBody=0;top=0;left=0;bottom=0;right=0;collapsible=0;dropTarget=0;fillColor=none;points=[[0,0.5],[1,0.5]];portConstraint=eastwest;strokeColor=inherit;fontSize=16;align=center;" parent="1eCSTTwg-2aaGd2EnfkB-71" vertex="1">
          <mxGeometry y="90" width="230" height="44" as="geometry" />
        </mxCell>
        <mxCell id="1eCSTTwg-2aaGd2EnfkB-79" value="to_user_id" style="shape=partialRectangle;html=1;whiteSpace=wrap;connectable=0;fillColor=none;top=0;left=0;bottom=0;right=0;overflow=hidden;strokeColor=inherit;fontSize=16;align=center;" parent="1eCSTTwg-2aaGd2EnfkB-78" vertex="1">
          <mxGeometry width="111" height="44" as="geometry">
            <mxRectangle width="111" height="44" as="alternateBounds" />
          </mxGeometry>
        </mxCell>
        <mxCell id="1eCSTTwg-2aaGd2EnfkB-80" value="integer" style="shape=partialRectangle;html=1;whiteSpace=wrap;connectable=0;fillColor=none;top=0;left=0;bottom=0;right=0;align=center;spacingLeft=6;overflow=hidden;strokeColor=inherit;fontSize=16;" parent="1eCSTTwg-2aaGd2EnfkB-78" vertex="1">
          <mxGeometry x="111" width="119" height="44" as="geometry">
            <mxRectangle width="119" height="44" as="alternateBounds" />
          </mxGeometry>
        </mxCell>
        <mxCell id="1eCSTTwg-2aaGd2EnfkB-96" value="" style="line;strokeWidth=1;html=1;perimeter=backbonePerimeter;points=[];outlineConnect=0;align=center;" parent="1" vertex="1">
          <mxGeometry x="847.57" y="-470" width="270" height="10" as="geometry" />
        </mxCell>
        <mxCell id="1eCSTTwg-2aaGd2EnfkB-97" value="" style="line;strokeWidth=1;html=1;perimeter=backbonePerimeter;points=[];outlineConnect=0;align=center;" parent="1" vertex="1">
          <mxGeometry x="1200" y="-370" width="230" height="10" as="geometry" />
        </mxCell>
        <mxCell id="1eCSTTwg-2aaGd2EnfkB-108" value="" style="line;strokeWidth=1;html=1;perimeter=backbonePerimeter;points=[];outlineConnect=0;align=center;" parent="1" vertex="1">
          <mxGeometry x="1200" y="-60" width="230" height="10" as="geometry" />
        </mxCell>
        <mxCell id="1eCSTTwg-2aaGd2EnfkB-113" value="" style="edgeStyle=entityRelationEdgeStyle;fontSize=12;html=1;endArrow=ERzeroToMany;endFill=1;strokeColor=#000000;fontColor=#143642;fillColor=#FAE5C7;exitX=-0.003;exitY=0.558;exitDx=0;exitDy=0;exitPerimeter=0;entryX=1;entryY=0.2;entryDx=0;entryDy=0;entryPerimeter=0;rounded=1;" parent="1" source="NMdTjbtGDUU_QRpKEMsv-66" target="NMdTjbtGDUU_QRpKEMsv-165" edge="1">
          <mxGeometry width="100" height="100" relative="1" as="geometry">
            <mxPoint x="360" y="-360" as="sourcePoint" />
            <mxPoint x="340" y="-470" as="targetPoint" />
          </mxGeometry>
        </mxCell>
        <mxCell id="1eCSTTwg-2aaGd2EnfkB-115" value="" style="edgeStyle=entityRelationEdgeStyle;fontSize=12;html=1;endArrow=ERzeroToMany;endFill=1;rounded=0;strokeColor=#000000;fontColor=#143642;fillColor=#FAE5C7;entryX=0.999;entryY=0.595;entryDx=0;entryDy=0;entryPerimeter=0;" parent="1" source="NMdTjbtGDUU_QRpKEMsv-8" target="NMdTjbtGDUU_QRpKEMsv-165" edge="1">
          <mxGeometry width="100" height="100" relative="1" as="geometry">
            <mxPoint x="370" y="-131" as="sourcePoint" />
            <mxPoint x="450" y="-220" as="targetPoint" />
          </mxGeometry>
        </mxCell>
        <mxCell id="1eCSTTwg-2aaGd2EnfkB-116" value="" style="edgeStyle=entityRelationEdgeStyle;fontSize=12;html=1;endArrow=ERzeroToMany;endFill=1;strokeColor=#000000;fontColor=#143642;fillColor=#FAE5C7;exitX=-0.007;exitY=0.582;exitDx=0;exitDy=0;exitPerimeter=0;entryX=0.998;entryY=0.61;entryDx=0;entryDy=0;entryPerimeter=0;curved=1;" parent="1" source="NMdTjbtGDUU_QRpKEMsv-98" target="NMdTjbtGDUU_QRpKEMsv-165" edge="1">
          <mxGeometry width="100" height="100" relative="1" as="geometry">
            <mxPoint x="310" y="370" as="sourcePoint" />
            <mxPoint x="350" y="-110" as="targetPoint" />
          </mxGeometry>
        </mxCell>
        <mxCell id="1eCSTTwg-2aaGd2EnfkB-117" value="" style="edgeStyle=entityRelationEdgeStyle;fontSize=12;html=1;endArrow=ERzeroToMany;endFill=1;strokeColor=#000000;fontColor=#143642;fillColor=#FAE5C7;exitX=0.005;exitY=0.582;exitDx=0;exitDy=0;exitPerimeter=0;curved=1;" parent="1" source="NMdTjbtGDUU_QRpKEMsv-66" target="NMdTjbtGDUU_QRpKEMsv-130" edge="1">
          <mxGeometry width="100" height="100" relative="1" as="geometry">
            <mxPoint x="250" y="160" as="sourcePoint" />
            <mxPoint x="350" y="60" as="targetPoint" />
          </mxGeometry>
        </mxCell>
        <mxCell id="1eCSTTwg-2aaGd2EnfkB-118" value="" style="edgeStyle=entityRelationEdgeStyle;fontSize=12;html=1;endArrow=ERzeroToMany;endFill=1;strokeColor=#000000;fontColor=#143642;fillColor=#FAE5C7;exitX=0.003;exitY=0.513;exitDx=0;exitDy=0;exitPerimeter=0;entryX=0.995;entryY=0.605;entryDx=0;entryDy=0;entryPerimeter=0;curved=1;" parent="1" source="NMdTjbtGDUU_QRpKEMsv-8" target="NMdTjbtGDUU_QRpKEMsv-130" edge="1">
          <mxGeometry width="100" height="100" relative="1" as="geometry">
            <mxPoint x="460" y="20" as="sourcePoint" />
            <mxPoint x="560" y="-80" as="targetPoint" />
          </mxGeometry>
        </mxCell>
        <mxCell id="1eCSTTwg-2aaGd2EnfkB-119" value="" style="edgeStyle=entityRelationEdgeStyle;fontSize=12;html=1;endArrow=ERzeroToMany;endFill=1;strokeColor=#131111;fontColor=#143642;fillColor=#FAE5C7;exitX=-0.011;exitY=0.351;exitDx=0;exitDy=0;exitPerimeter=0;curved=1;" parent="1" source="NMdTjbtGDUU_QRpKEMsv-98" target="NMdTjbtGDUU_QRpKEMsv-130" edge="1">
          <mxGeometry width="100" height="100" relative="1" as="geometry">
            <mxPoint x="460" y="130" as="sourcePoint" />
            <mxPoint x="560" y="30" as="targetPoint" />
          </mxGeometry>
        </mxCell>
        <mxCell id="1eCSTTwg-2aaGd2EnfkB-163" value="" style="edgeStyle=entityRelationEdgeStyle;fontSize=12;html=1;endArrow=ERmandOne;startArrow=ERmandOne;strokeColor=#000000;fontColor=#143642;fillColor=#FAE5C7;exitX=0.999;exitY=0.511;exitDx=0;exitDy=0;exitPerimeter=0;curved=1;" parent="1" source="NMdTjbtGDUU_QRpKEMsv-98" target="1eCSTTwg-2aaGd2EnfkB-193" edge="1">
          <mxGeometry width="100" height="100" relative="1" as="geometry">
            <mxPoint x="720" y="360" as="sourcePoint" />
            <mxPoint x="880.8100000000002" y="46.52999999999997" as="targetPoint" />
          </mxGeometry>
        </mxCell>
        <mxCell id="1eCSTTwg-2aaGd2EnfkB-165" value="" style="edgeStyle=entityRelationEdgeStyle;fontSize=12;html=1;endArrow=ERzeroToMany;endFill=1;strokeColor=#000000;fontColor=#143642;fillColor=#FAE5C7;entryX=0.004;entryY=0.481;entryDx=0;entryDy=0;entryPerimeter=0;exitX=1.004;exitY=0.45;exitDx=0;exitDy=0;exitPerimeter=0;rounded=1;" parent="1" source="1eCSTTwg-2aaGd2EnfkB-184" target="1eCSTTwg-2aaGd2EnfkB-102" edge="1">
          <mxGeometry width="100" height="100" relative="1" as="geometry">
            <mxPoint x="1118.6499999999999" y="-161.99" as="sourcePoint" />
            <mxPoint x="1167.57" y="-80" as="targetPoint" />
          </mxGeometry>
        </mxCell>
        <mxCell id="1eCSTTwg-2aaGd2EnfkB-171" value="" style="edgeStyle=entityRelationEdgeStyle;fontSize=12;html=1;endArrow=ERmandOne;startArrow=ERmandOne;strokeColor=#000000;fontColor=#143642;fillColor=#FAE5C7;curved=1;" parent="1" source="NMdTjbtGDUU_QRpKEMsv-101" target="1eCSTTwg-2aaGd2EnfkB-17" edge="1">
          <mxGeometry width="100" height="100" relative="1" as="geometry">
            <mxPoint x="730" y="40" as="sourcePoint" />
            <mxPoint x="800" y="340" as="targetPoint" />
          </mxGeometry>
        </mxCell>
        <mxCell id="1eCSTTwg-2aaGd2EnfkB-173" value="" style="edgeStyle=entityRelationEdgeStyle;fontSize=12;html=1;endArrow=ERmandOne;startArrow=ERmandOne;strokeColor=#000000;fontColor=#143642;fillColor=#FAE5C7;curved=1;" parent="1" source="1eCSTTwg-2aaGd2EnfkB-17" target="NMdTjbtGDUU_QRpKEMsv-8" edge="1">
          <mxGeometry width="100" height="100" relative="1" as="geometry">
            <mxPoint x="850" y="300" as="sourcePoint" />
            <mxPoint x="780" y="-30" as="targetPoint" />
          </mxGeometry>
        </mxCell>
        <mxCell id="1eCSTTwg-2aaGd2EnfkB-174" value="" style="edgeStyle=entityRelationEdgeStyle;fontSize=12;html=1;endArrow=ERmandOne;startArrow=ERmandOne;strokeColor=#000000;fontColor=#143642;fillColor=#FAE5C7;exitX=0.011;exitY=0.336;exitDx=0;exitDy=0;exitPerimeter=0;curved=1;" parent="1" source="1eCSTTwg-2aaGd2EnfkB-17" target="NMdTjbtGDUU_QRpKEMsv-66" edge="1">
          <mxGeometry width="100" height="100" relative="1" as="geometry">
            <mxPoint x="850" y="130" as="sourcePoint" />
            <mxPoint x="790" y="-150" as="targetPoint" />
          </mxGeometry>
        </mxCell>
        <mxCell id="1eCSTTwg-2aaGd2EnfkB-180" value="" style="edgeStyle=entityRelationEdgeStyle;fontSize=12;html=1;endArrow=ERzeroToMany;endFill=1;rounded=1;strokeColor=#000000;fontColor=#143642;fillColor=#FAE5C7;entryX=0.996;entryY=0.601;entryDx=0;entryDy=0;entryPerimeter=0;" parent="1" source="1eCSTTwg-2aaGd2EnfkB-8" target="1eCSTTwg-2aaGd2EnfkB-43" edge="1">
          <mxGeometry width="100" height="100" relative="1" as="geometry">
            <mxPoint x="1147.57" y="290" as="sourcePoint" />
            <mxPoint x="1247.57" y="190" as="targetPoint" />
          </mxGeometry>
        </mxCell>
        <mxCell id="1eCSTTwg-2aaGd2EnfkB-183" value="communitys_playlist" style="shape=table;startSize=30;container=1;collapsible=0;childLayout=tableLayout;fixedRows=1;rowLines=0;fontStyle=0;strokeColor=default;fontSize=16;rounded=1;align=center;fillColor=#CCFFCC;" parent="1" vertex="1">
          <mxGeometry x="847.57" y="-190" width="269" height="140" as="geometry" />
        </mxCell>
        <mxCell id="1eCSTTwg-2aaGd2EnfkB-184" value="" style="shape=tableRow;horizontal=0;startSize=0;swimlaneHead=0;swimlaneBody=0;top=0;left=0;bottom=0;right=0;collapsible=0;dropTarget=0;fillColor=none;points=[[0,0.5],[1,0.5]];portConstraint=eastwest;strokeColor=inherit;fontSize=16;align=center;" parent="1eCSTTwg-2aaGd2EnfkB-183" vertex="1">
          <mxGeometry y="30" width="269" height="20" as="geometry" />
        </mxCell>
        <mxCell id="1eCSTTwg-2aaGd2EnfkB-185" value="id" style="shape=partialRectangle;html=1;whiteSpace=wrap;connectable=0;fillColor=none;top=0;left=0;bottom=0;right=0;overflow=hidden;pointerEvents=1;strokeColor=inherit;fontSize=16;align=center;" parent="1eCSTTwg-2aaGd2EnfkB-184" vertex="1">
          <mxGeometry width="134" height="20" as="geometry">
            <mxRectangle width="134" height="20" as="alternateBounds" />
          </mxGeometry>
        </mxCell>
        <mxCell id="1eCSTTwg-2aaGd2EnfkB-186" value="integer" style="shape=partialRectangle;html=1;whiteSpace=wrap;connectable=0;fillColor=none;top=0;left=0;bottom=0;right=0;align=center;spacingLeft=6;overflow=hidden;strokeColor=inherit;fontSize=16;" parent="1eCSTTwg-2aaGd2EnfkB-184" vertex="1">
          <mxGeometry x="134" width="135" height="20" as="geometry">
            <mxRectangle width="135" height="20" as="alternateBounds" />
          </mxGeometry>
        </mxCell>
        <mxCell id="1eCSTTwg-2aaGd2EnfkB-187" value="" style="shape=tableRow;horizontal=0;startSize=0;swimlaneHead=0;swimlaneBody=0;top=0;left=0;bottom=0;right=0;collapsible=0;dropTarget=0;fillColor=none;points=[[0,0.5],[1,0.5]];portConstraint=eastwest;strokeColor=inherit;fontSize=16;align=center;" parent="1eCSTTwg-2aaGd2EnfkB-183" vertex="1">
          <mxGeometry y="50" width="269" height="30" as="geometry" />
        </mxCell>
        <mxCell id="1eCSTTwg-2aaGd2EnfkB-188" value="user_id" style="shape=partialRectangle;html=1;whiteSpace=wrap;connectable=0;fillColor=none;top=0;left=0;bottom=0;right=0;overflow=hidden;strokeColor=inherit;fontSize=16;align=center;" parent="1eCSTTwg-2aaGd2EnfkB-187" vertex="1">
          <mxGeometry width="134" height="30" as="geometry">
            <mxRectangle width="134" height="30" as="alternateBounds" />
          </mxGeometry>
        </mxCell>
        <mxCell id="1eCSTTwg-2aaGd2EnfkB-189" value="integer" style="shape=partialRectangle;html=1;whiteSpace=wrap;connectable=0;fillColor=none;top=0;left=0;bottom=0;right=0;align=center;spacingLeft=6;overflow=hidden;strokeColor=inherit;fontSize=16;" parent="1eCSTTwg-2aaGd2EnfkB-187" vertex="1">
          <mxGeometry x="134" width="135" height="30" as="geometry">
            <mxRectangle width="135" height="30" as="alternateBounds" />
          </mxGeometry>
        </mxCell>
        <mxCell id="1eCSTTwg-2aaGd2EnfkB-190" value="" style="shape=tableRow;horizontal=0;startSize=0;swimlaneHead=0;swimlaneBody=0;top=0;left=0;bottom=0;right=0;collapsible=0;dropTarget=0;fillColor=none;points=[[0,0.5],[1,0.5]];portConstraint=eastwest;strokeColor=inherit;fontSize=16;align=center;" parent="1eCSTTwg-2aaGd2EnfkB-183" vertex="1">
          <mxGeometry y="80" width="269" height="30" as="geometry" />
        </mxCell>
        <mxCell id="1eCSTTwg-2aaGd2EnfkB-191" value="title" style="shape=partialRectangle;html=1;whiteSpace=wrap;connectable=0;fillColor=none;top=0;left=0;bottom=0;right=0;overflow=hidden;strokeColor=inherit;fontSize=16;align=center;" parent="1eCSTTwg-2aaGd2EnfkB-190" vertex="1">
          <mxGeometry width="134" height="30" as="geometry">
            <mxRectangle width="134" height="30" as="alternateBounds" />
          </mxGeometry>
        </mxCell>
        <mxCell id="1eCSTTwg-2aaGd2EnfkB-192" value="varchar" style="shape=partialRectangle;html=1;whiteSpace=wrap;connectable=0;fillColor=none;top=0;left=0;bottom=0;right=0;align=center;spacingLeft=6;overflow=hidden;strokeColor=inherit;fontSize=16;" parent="1eCSTTwg-2aaGd2EnfkB-190" vertex="1">
          <mxGeometry x="134" width="135" height="30" as="geometry">
            <mxRectangle width="135" height="30" as="alternateBounds" />
          </mxGeometry>
        </mxCell>
        <mxCell id="1eCSTTwg-2aaGd2EnfkB-193" value="" style="shape=tableRow;horizontal=0;startSize=0;swimlaneHead=0;swimlaneBody=0;top=0;left=0;bottom=0;right=0;collapsible=0;dropTarget=0;fillColor=none;points=[[0,0.5],[1,0.5]];portConstraint=eastwest;strokeColor=inherit;fontSize=16;align=center;" parent="1eCSTTwg-2aaGd2EnfkB-183" vertex="1">
          <mxGeometry y="110" width="269" height="30" as="geometry" />
        </mxCell>
        <mxCell id="1eCSTTwg-2aaGd2EnfkB-194" value="movie_id_list" style="shape=partialRectangle;html=1;whiteSpace=wrap;connectable=0;fillColor=none;top=0;left=0;bottom=0;right=0;overflow=hidden;strokeColor=inherit;fontSize=16;align=center;" parent="1eCSTTwg-2aaGd2EnfkB-193" vertex="1">
          <mxGeometry width="134" height="30" as="geometry">
            <mxRectangle width="134" height="30" as="alternateBounds" />
          </mxGeometry>
        </mxCell>
        <mxCell id="1eCSTTwg-2aaGd2EnfkB-195" value="integer" style="shape=partialRectangle;html=1;whiteSpace=wrap;connectable=0;fillColor=none;top=0;left=0;bottom=0;right=0;align=center;spacingLeft=6;overflow=hidden;strokeColor=inherit;fontSize=16;" parent="1eCSTTwg-2aaGd2EnfkB-193" vertex="1">
          <mxGeometry x="134" width="135" height="30" as="geometry">
            <mxRectangle width="135" height="30" as="alternateBounds" />
          </mxGeometry>
        </mxCell>
        <mxCell id="1eCSTTwg-2aaGd2EnfkB-202" value="" style="line;strokeWidth=1;html=1;perimeter=backbonePerimeter;points=[];outlineConnect=0;align=center;" parent="1" vertex="1">
          <mxGeometry x="850" y="-140" width="270" height="10" as="geometry" />
        </mxCell>
        <mxCell id="1eCSTTwg-2aaGd2EnfkB-203" value="" style="edgeStyle=entityRelationEdgeStyle;fontSize=12;html=1;endArrow=ERzeroToMany;endFill=1;strokeColor=#000000;fontColor=#143642;fillColor=#FAE5C7;exitX=0.009;exitY=0.45;exitDx=0;exitDy=0;exitPerimeter=0;curved=1;entryX=0.004;entryY=0.678;entryDx=0;entryDy=0;entryPerimeter=0;" parent="1" source="NMdTjbtGDUU_QRpKEMsv-218" target="1eCSTTwg-2aaGd2EnfkB-187" edge="1">
          <mxGeometry width="100" height="100" relative="1" as="geometry">
            <mxPoint x="787.57" y="-340" as="sourcePoint" />
            <mxPoint x="847.57" y="-95" as="targetPoint" />
          </mxGeometry>
        </mxCell>
        <mxCell id="1eCSTTwg-2aaGd2EnfkB-205" value="" style="edgeStyle=entityRelationEdgeStyle;fontSize=12;html=1;endArrow=ERmany;startArrow=ERmany;strokeColor=#000000;fontColor=#143642;fillColor=#FAE5C7;exitX=0.999;exitY=0.636;exitDx=0;exitDy=0;exitPerimeter=0;rounded=1;" parent="1" source="NMdTjbtGDUU_QRpKEMsv-218" target="1eCSTTwg-2aaGd2EnfkB-72" edge="1">
          <mxGeometry width="100" height="100" relative="1" as="geometry">
            <mxPoint x="1057.57" y="-330" as="sourcePoint" />
            <mxPoint x="1157.57" y="-430" as="targetPoint" />
          </mxGeometry>
        </mxCell>
        <mxCell id="1eCSTTwg-2aaGd2EnfkB-207" value="" style="edgeStyle=entityRelationEdgeStyle;fontSize=12;html=1;endArrow=ERzeroToMany;endFill=1;strokeColor=#A8201A;fontColor=#143642;fillColor=#FAE5C7;curved=1;" parent="1" source="NMdTjbtGDUU_QRpKEMsv-218" target="1eCSTTwg-2aaGd2EnfkB-105" edge="1">
          <mxGeometry width="100" height="100" relative="1" as="geometry">
            <mxPoint x="1160" y="-170" as="sourcePoint" />
            <mxPoint x="1260" y="-270" as="targetPoint" />
          </mxGeometry>
        </mxCell>
      </root>
    </mxGraphModel>
  </diagram>
</mxfile>
